<?xml version="1.0" encoding="UTF-8" standalone="no"?><svg xmlns="http://www.w3.org/2000/svg" xmlns:xlink="http://www.w3.org/1999/xlink" contentScriptType="application/ecmascript" contentStyleType="text/css" height="545px" preserveAspectRatio="none" style="width:2237px;height:545px;background:#FFFFFF;" version="1.1" viewBox="0 0 2237 545" width="2237px" zoomAndPan="magnify"><defs><filter height="300%" id="f1i0ylw5q9e6i5" width="300%" x="-1" y="-1"><feGaussianBlur result="blurOut" stdDeviation="2.0"/><feColorMatrix in="blurOut" result="blurOut2" type="matrix" values="0 0 0 0 0 0 0 0 0 0 0 0 0 0 0 0 0 0 .4 0"/><feOffset dx="4.0" dy="4.0" in="blurOut2" result="blurOut3"/><feBlend in="SourceGraphic" in2="blurOut3" mode="normal"/></filter></defs><g><!--MD5=[42db188749123a263e7f2df42fab6032]
class tiempos--><rect codeLine="1" fill="#FEFECE" filter="url(#f1i0ylw5q9e6i5)" height="92.3516" id="tiempos" style="stroke:#A80036;stroke-width:1.5;" width="333" x="904" y="242.5"/><ellipse cx="1029.75" cy="261.4688" fill="#ADD1B2" rx="11" ry="11" style="stroke:#A80036;stroke-width:1.0;"/><path d="M1028.5469,262.3438 L1030,262.3438 L1030,262.4531 C1030,262.8594 1030.0313,263.0156 1030.1094,263.1719 C1030.2656,263.4219 1030.5469,263.5781 1030.8438,263.5781 C1031.0938,263.5781 1031.3594,263.4375 1031.5156,263.2188 C1031.6406,263.0625 1031.6719,262.9063 1031.6719,262.4531 L1031.6719,260.5313 C1031.6719,260.375 1031.6719,260.3281 1031.6563,260.1719 C1031.5938,259.7031 1031.2813,259.3906 1030.8281,259.3906 C1030.5781,259.3906 1030.3125,259.5313 1030.1406,259.75 C1030.0313,259.9219 1030,260.0781 1030,260.5313 L1030,260.6563 L1028.5469,260.6563 L1028.5469,258.25 L1032.5313,258.25 L1032.5313,259.1094 C1032.5313,259.5156 1032.5625,259.6875 1032.6406,259.8438 C1032.8125,260.0938 1033.0938,260.25 1033.375,260.25 C1033.6406,260.25 1033.9063,260.1094 1034.0781,259.8906 C1034.1875,259.7188 1034.2188,259.5781 1034.2188,259.1094 L1034.2188,256.5625 L1026.5938,256.5625 C1026.1563,256.5625 1026.0313,256.5781 1025.875,256.6719 C1025.625,256.8281 1025.4688,257.125 1025.4688,257.4063 C1025.4688,257.6875 1025.6094,257.9375 1025.8281,258.1094 C1025.9844,258.2188 1026.1719,258.25 1026.5938,258.25 L1026.8438,258.25 L1026.8438,264.7656 L1026.5938,264.7656 C1026.1875,264.7656 1026.0313,264.7813 1025.875,264.8906 C1025.625,265.0625 1025.4688,265.3281 1025.4688,265.625 C1025.4688,265.8906 1025.6094,266.1406 1025.8281,266.2969 C1025.9688,266.4219 1026.2031,266.4688 1026.5938,266.4688 L1034.5938,266.4688 L1034.5938,263.8906 C1034.5938,263.4531 1034.5625,263.3125 1034.4844,263.1563 C1034.3125,262.9063 1034.0313,262.75 1033.75,262.75 C1033.4844,262.75 1033.2188,262.8594 1033.0469,263.1094 C1032.9375,263.2656 1032.9063,263.4063 1032.9063,263.8906 L1032.9063,264.7656 L1028.5469,264.7656 L1028.5469,262.3438 Z " fill="#000000"/><text fill="#000000" font-family="sans-serif" font-size="12" font-style="italic" lengthAdjust="spacing" textLength="77" x="1048.25" y="258.6387">«Dimension»</text><text fill="#000000" font-family="sans-serif" font-size="12" lengthAdjust="spacing" textLength="49" x="1062.25" y="272.6074">tiempos</text><line style="stroke:#A80036;stroke-width:1.5;" x1="905" x2="1236" y1="280.4375" y2="280.4375"/><text fill="#000000" font-family="sans-serif" font-size="11" font-weight="bold" lengthAdjust="spacing" textLength="321" x="910" y="294.6479">&lt;PK&gt; CODIGO_TIEMPO int IDENTITY PRIMARY KEY</text><line style="stroke:#A80036;stroke-width:1.0;" x1="905" x2="1236" y1="301.2422" y2="301.2422"/><text fill="#000000" font-family="sans-serif" font-size="11" lengthAdjust="spacing" textLength="43" x="910" y="315.4526">AÑO int</text><text fill="#000000" font-family="sans-serif" font-size="11" lengthAdjust="spacing" textLength="42" x="910" y="328.2573">MES int</text><!--MD5=[1451bee8a8228d45327273073cc6280e]
class sucursales--><rect codeLine="8" fill="#FEFECE" filter="url(#f1i0ylw5q9e6i5)" height="117.9609" id="sucursales" style="stroke:#A80036;stroke-width:1.5;" width="199" x="670" y="229.5"/><ellipse cx="728.75" cy="248.4688" fill="#ADD1B2" rx="11" ry="11" style="stroke:#A80036;stroke-width:1.0;"/><path d="M727.5469,249.3438 L729,249.3438 L729,249.4531 C729,249.8594 729.0313,250.0156 729.1094,250.1719 C729.2656,250.4219 729.5469,250.5781 729.8438,250.5781 C730.0938,250.5781 730.3594,250.4375 730.5156,250.2188 C730.6406,250.0625 730.6719,249.9063 730.6719,249.4531 L730.6719,247.5313 C730.6719,247.375 730.6719,247.3281 730.6563,247.1719 C730.5938,246.7031 730.2813,246.3906 729.8281,246.3906 C729.5781,246.3906 729.3125,246.5313 729.1406,246.75 C729.0313,246.9219 729,247.0781 729,247.5313 L729,247.6563 L727.5469,247.6563 L727.5469,245.25 L731.5313,245.25 L731.5313,246.1094 C731.5313,246.5156 731.5625,246.6875 731.6406,246.8438 C731.8125,247.0938 732.0938,247.25 732.375,247.25 C732.6406,247.25 732.9063,247.1094 733.0781,246.8906 C733.1875,246.7188 733.2188,246.5781 733.2188,246.1094 L733.2188,243.5625 L725.5938,243.5625 C725.1563,243.5625 725.0313,243.5781 724.875,243.6719 C724.625,243.8281 724.4688,244.125 724.4688,244.4063 C724.4688,244.6875 724.6094,244.9375 724.8281,245.1094 C724.9844,245.2188 725.1719,245.25 725.5938,245.25 L725.8438,245.25 L725.8438,251.7656 L725.5938,251.7656 C725.1875,251.7656 725.0313,251.7813 724.875,251.8906 C724.625,252.0625 724.4688,252.3281 724.4688,252.625 C724.4688,252.8906 724.6094,253.1406 724.8281,253.2969 C724.9688,253.4219 725.2031,253.4688 725.5938,253.4688 L733.5938,253.4688 L733.5938,250.8906 C733.5938,250.4531 733.5625,250.3125 733.4844,250.1563 C733.3125,249.9063 733.0313,249.75 732.75,249.75 C732.4844,249.75 732.2188,249.8594 732.0469,250.1094 C731.9375,250.2656 731.9063,250.4063 731.9063,250.8906 L731.9063,251.7656 L727.5469,251.7656 L727.5469,249.3438 Z " fill="#000000"/><text fill="#000000" font-family="sans-serif" font-size="12" font-style="italic" lengthAdjust="spacing" textLength="77" x="747.25" y="245.6387">«Dimension»</text><text fill="#000000" font-family="sans-serif" font-size="12" lengthAdjust="spacing" textLength="65" x="753.25" y="259.6074">sucursales</text><line style="stroke:#A80036;stroke-width:1.5;" x1="671" x2="868" y1="267.4375" y2="267.4375"/><text fill="#000000" font-family="sans-serif" font-size="11" font-weight="bold" lengthAdjust="spacing" textLength="187" x="676" y="281.6479">&lt;PK&gt; CODIGO_SUCURSAL int</text><line style="stroke:#A80036;stroke-width:1.0;" x1="671" x2="868" y1="288.2422" y2="288.2422"/><text fill="#000000" font-family="sans-serif" font-size="11" lengthAdjust="spacing" textLength="101" x="676" y="302.4526">DIR nvarchar(255)</text><text fill="#000000" font-family="sans-serif" font-size="11" lengthAdjust="spacing" textLength="108" x="676" y="315.2573">MAIL nvarchar(255)</text><text fill="#000000" font-family="sans-serif" font-size="11" lengthAdjust="spacing" textLength="140" x="676" y="328.062">TELEFONO decimal(18,0)</text><text fill="#000000" font-family="sans-serif" font-size="11" lengthAdjust="spacing" textLength="127" x="676" y="340.8667">CIUDAD nvarchar(255)</text><!--MD5=[d0f1df989c42bf05f62201b29cc94e68]
class pcs--><rect codeLine="17" fill="#FEFECE" filter="url(#f1i0ylw5q9e6i5)" height="117.9609" id="pcs" style="stroke:#A80036;stroke-width:1.5;" width="289" x="346" y="229.5"/><ellipse cx="449.75" cy="248.4688" fill="#ADD1B2" rx="11" ry="11" style="stroke:#A80036;stroke-width:1.0;"/><path d="M448.5469,249.3438 L450,249.3438 L450,249.4531 C450,249.8594 450.0313,250.0156 450.1094,250.1719 C450.2656,250.4219 450.5469,250.5781 450.8438,250.5781 C451.0938,250.5781 451.3594,250.4375 451.5156,250.2188 C451.6406,250.0625 451.6719,249.9063 451.6719,249.4531 L451.6719,247.5313 C451.6719,247.375 451.6719,247.3281 451.6563,247.1719 C451.5938,246.7031 451.2813,246.3906 450.8281,246.3906 C450.5781,246.3906 450.3125,246.5313 450.1406,246.75 C450.0313,246.9219 450,247.0781 450,247.5313 L450,247.6563 L448.5469,247.6563 L448.5469,245.25 L452.5313,245.25 L452.5313,246.1094 C452.5313,246.5156 452.5625,246.6875 452.6406,246.8438 C452.8125,247.0938 453.0938,247.25 453.375,247.25 C453.6406,247.25 453.9063,247.1094 454.0781,246.8906 C454.1875,246.7188 454.2188,246.5781 454.2188,246.1094 L454.2188,243.5625 L446.5938,243.5625 C446.1563,243.5625 446.0313,243.5781 445.875,243.6719 C445.625,243.8281 445.4688,244.125 445.4688,244.4063 C445.4688,244.6875 445.6094,244.9375 445.8281,245.1094 C445.9844,245.2188 446.1719,245.25 446.5938,245.25 L446.8438,245.25 L446.8438,251.7656 L446.5938,251.7656 C446.1875,251.7656 446.0313,251.7813 445.875,251.8906 C445.625,252.0625 445.4688,252.3281 445.4688,252.625 C445.4688,252.8906 445.6094,253.1406 445.8281,253.2969 C445.9688,253.4219 446.2031,253.4688 446.5938,253.4688 L454.5938,253.4688 L454.5938,250.8906 C454.5938,250.4531 454.5625,250.3125 454.4844,250.1563 C454.3125,249.9063 454.0313,249.75 453.75,249.75 C453.4844,249.75 453.2188,249.8594 453.0469,250.1094 C452.9375,250.2656 452.9063,250.4063 452.9063,250.8906 L452.9063,251.7656 L448.5469,251.7656 L448.5469,249.3438 Z " fill="#000000"/><text fill="#000000" font-family="sans-serif" font-size="12" font-style="italic" lengthAdjust="spacing" textLength="77" x="468.25" y="245.6387">«Dimension»</text><text fill="#000000" font-family="sans-serif" font-size="12" lengthAdjust="spacing" textLength="22" x="495.75" y="259.6074">pcs</text><line style="stroke:#A80036;stroke-width:1.5;" x1="347" x2="634" y1="267.4375" y2="267.4375"/><text fill="#000000" font-family="sans-serif" font-size="11" font-weight="bold" lengthAdjust="spacing" textLength="208" x="352" y="281.6479">&lt;PK&gt;  PC_CODIGO nvarchar(50)</text><line style="stroke:#A80036;stroke-width:1.0;" x1="347" x2="634" y1="288.2422" y2="288.2422"/><text fill="#000000" font-family="sans-serif" font-size="11" lengthAdjust="spacing" textLength="115" x="352" y="302.4526">ALTO decimal (18,2)</text><text fill="#000000" font-family="sans-serif" font-size="11" lengthAdjust="spacing" textLength="126" x="352" y="315.2573">ANCHO decimal (18,2)</text><text fill="#000000" font-family="sans-serif" font-size="11" lengthAdjust="spacing" textLength="167" x="352" y="328.062">PROFUNDIDAD decimal (18,2)</text><text fill="#000000" font-family="sans-serif" font-size="11" lengthAdjust="spacing" textLength="277" x="352" y="340.8667">&lt;FK&gt; MICROPROCESADOR_CODIGO nvarchar(50)</text><!--MD5=[ac6024d5ddbc2c62e18609e167232f76]
class discos_rigidos--><rect codeLine="26" fill="#FEFECE" filter="url(#f1i0ylw5q9e6i5)" height="117.9609" id="discos_rigidos" style="stroke:#A80036;stroke-width:1.5;" width="296" x="1272.5" y="229.5"/><ellipse cx="1372.25" cy="248.4688" fill="#ADD1B2" rx="11" ry="11" style="stroke:#A80036;stroke-width:1.0;"/><path d="M1371.0469,249.3438 L1372.5,249.3438 L1372.5,249.4531 C1372.5,249.8594 1372.5313,250.0156 1372.6094,250.1719 C1372.7656,250.4219 1373.0469,250.5781 1373.3438,250.5781 C1373.5938,250.5781 1373.8594,250.4375 1374.0156,250.2188 C1374.1406,250.0625 1374.1719,249.9063 1374.1719,249.4531 L1374.1719,247.5313 C1374.1719,247.375 1374.1719,247.3281 1374.1563,247.1719 C1374.0938,246.7031 1373.7813,246.3906 1373.3281,246.3906 C1373.0781,246.3906 1372.8125,246.5313 1372.6406,246.75 C1372.5313,246.9219 1372.5,247.0781 1372.5,247.5313 L1372.5,247.6563 L1371.0469,247.6563 L1371.0469,245.25 L1375.0313,245.25 L1375.0313,246.1094 C1375.0313,246.5156 1375.0625,246.6875 1375.1406,246.8438 C1375.3125,247.0938 1375.5938,247.25 1375.875,247.25 C1376.1406,247.25 1376.4063,247.1094 1376.5781,246.8906 C1376.6875,246.7188 1376.7188,246.5781 1376.7188,246.1094 L1376.7188,243.5625 L1369.0938,243.5625 C1368.6563,243.5625 1368.5313,243.5781 1368.375,243.6719 C1368.125,243.8281 1367.9688,244.125 1367.9688,244.4063 C1367.9688,244.6875 1368.1094,244.9375 1368.3281,245.1094 C1368.4844,245.2188 1368.6719,245.25 1369.0938,245.25 L1369.3438,245.25 L1369.3438,251.7656 L1369.0938,251.7656 C1368.6875,251.7656 1368.5313,251.7813 1368.375,251.8906 C1368.125,252.0625 1367.9688,252.3281 1367.9688,252.625 C1367.9688,252.8906 1368.1094,253.1406 1368.3281,253.2969 C1368.4688,253.4219 1368.7031,253.4688 1369.0938,253.4688 L1377.0938,253.4688 L1377.0938,250.8906 C1377.0938,250.4531 1377.0625,250.3125 1376.9844,250.1563 C1376.8125,249.9063 1376.5313,249.75 1376.25,249.75 C1375.9844,249.75 1375.7188,249.8594 1375.5469,250.1094 C1375.4375,250.2656 1375.4063,250.4063 1375.4063,250.8906 L1375.4063,251.7656 L1371.0469,251.7656 L1371.0469,249.3438 Z " fill="#000000"/><text fill="#000000" font-family="sans-serif" font-size="12" font-style="italic" lengthAdjust="spacing" textLength="77" x="1398.25" y="245.6387">«Dimension»</text><text fill="#000000" font-family="sans-serif" font-size="12" lengthAdjust="spacing" textLength="88" x="1392.75" y="259.6074">discos_rigidos</text><line style="stroke:#A80036;stroke-width:1.5;" x1="1273.5" x2="1567.5" y1="267.4375" y2="267.4375"/><text fill="#000000" font-family="sans-serif" font-size="11" font-weight="bold" lengthAdjust="spacing" textLength="284" x="1278.5" y="281.6479">&lt;PK&gt; DISCO_RIGIDO_CODIGO nvarchar(255)</text><line style="stroke:#A80036;stroke-width:1.0;" x1="1273.5" x2="1567.5" y1="288.2422" y2="288.2422"/><text fill="#000000" font-family="sans-serif" font-size="11" lengthAdjust="spacing" textLength="107" x="1278.5" y="302.4526">TIPO nvarchar(255)</text><text fill="#000000" font-family="sans-serif" font-size="11" lengthAdjust="spacing" textLength="149" x="1278.5" y="315.2573">CAPACIDAD nvarchar(255)</text><text fill="#000000" font-family="sans-serif" font-size="11" lengthAdjust="spacing" textLength="149" x="1278.5" y="328.062">VELOCIDAD nvarchar(255)</text><text fill="#000000" font-family="sans-serif" font-size="11" lengthAdjust="spacing" textLength="152" x="1278.5" y="340.8667">FABRICANTE nvarchar(255)</text><!--MD5=[b2d9ebf7e96f999cd40d71020b218d0a]
class procesadores--><rect codeLine="35" fill="#FEFECE" filter="url(#f1i0ylw5q9e6i5)" height="117.9609" id="procesadores" style="stroke:#A80036;stroke-width:1.5;" width="327" x="337" y="414"/><ellipse cx="453.25" cy="432.9688" fill="#ADD1B2" rx="11" ry="11" style="stroke:#A80036;stroke-width:1.0;"/><path d="M452.0469,433.8438 L453.5,433.8438 L453.5,433.9531 C453.5,434.3594 453.5313,434.5156 453.6094,434.6719 C453.7656,434.9219 454.0469,435.0781 454.3438,435.0781 C454.5938,435.0781 454.8594,434.9375 455.0156,434.7188 C455.1406,434.5625 455.1719,434.4063 455.1719,433.9531 L455.1719,432.0313 C455.1719,431.875 455.1719,431.8281 455.1563,431.6719 C455.0938,431.2031 454.7813,430.8906 454.3281,430.8906 C454.0781,430.8906 453.8125,431.0313 453.6406,431.25 C453.5313,431.4219 453.5,431.5781 453.5,432.0313 L453.5,432.1563 L452.0469,432.1563 L452.0469,429.75 L456.0313,429.75 L456.0313,430.6094 C456.0313,431.0156 456.0625,431.1875 456.1406,431.3438 C456.3125,431.5938 456.5938,431.75 456.875,431.75 C457.1406,431.75 457.4063,431.6094 457.5781,431.3906 C457.6875,431.2188 457.7188,431.0781 457.7188,430.6094 L457.7188,428.0625 L450.0938,428.0625 C449.6563,428.0625 449.5313,428.0781 449.375,428.1719 C449.125,428.3281 448.9688,428.625 448.9688,428.9063 C448.9688,429.1875 449.1094,429.4375 449.3281,429.6094 C449.4844,429.7188 449.6719,429.75 450.0938,429.75 L450.3438,429.75 L450.3438,436.2656 L450.0938,436.2656 C449.6875,436.2656 449.5313,436.2813 449.375,436.3906 C449.125,436.5625 448.9688,436.8281 448.9688,437.125 C448.9688,437.3906 449.1094,437.6406 449.3281,437.7969 C449.4688,437.9219 449.7031,437.9688 450.0938,437.9688 L458.0938,437.9688 L458.0938,435.3906 C458.0938,434.9531 458.0625,434.8125 457.9844,434.6563 C457.8125,434.4063 457.5313,434.25 457.25,434.25 C456.9844,434.25 456.7188,434.3594 456.5469,434.6094 C456.4375,434.7656 456.4063,434.9063 456.4063,435.3906 L456.4063,436.2656 L452.0469,436.2656 L452.0469,433.8438 Z " fill="#000000"/><text fill="#000000" font-family="sans-serif" font-size="12" font-style="italic" lengthAdjust="spacing" textLength="77" x="478.25" y="430.1387">«Dimension»</text><text fill="#000000" font-family="sans-serif" font-size="12" lengthAdjust="spacing" textLength="86" x="473.75" y="444.1074">procesadores</text><line style="stroke:#A80036;stroke-width:1.5;" x1="338" x2="663" y1="451.9375" y2="451.9375"/><text fill="#000000" font-family="sans-serif" font-size="11" font-weight="bold" lengthAdjust="spacing" textLength="315" x="343" y="466.1479">&lt;PK&gt; MICROPROCESADOR_CODIGO nvarchar(50)</text><line style="stroke:#A80036;stroke-width:1.0;" x1="338" x2="663" y1="472.7422" y2="472.7422"/><text fill="#000000" font-family="sans-serif" font-size="11" lengthAdjust="spacing" textLength="181" x="343" y="486.9526">CANTIDAD_HILOS decimal(18,0)</text><text fill="#000000" font-family="sans-serif" font-size="11" lengthAdjust="spacing" textLength="114" x="343" y="499.7573">CACHE nvarchar(50)</text><text fill="#000000" font-family="sans-serif" font-size="11" lengthAdjust="spacing" textLength="142" x="343" y="512.562">VELOCIDAD nvarchar(50)</text><text fill="#000000" font-family="sans-serif" font-size="11" lengthAdjust="spacing" textLength="152" x="343" y="525.3667">FABRICANTE nvarchar(255)</text><!--MD5=[d8204b32b5808b407c9f428ccdf39720]
class memorias_ram--><rect codeLine="44" fill="#FEFECE" filter="url(#f1i0ylw5q9e6i5)" height="117.9609" id="memorias_ram" style="stroke:#A80036;stroke-width:1.5;" width="303" x="1604" y="229.5"/><ellipse cx="1706.75" cy="248.4688" fill="#ADD1B2" rx="11" ry="11" style="stroke:#A80036;stroke-width:1.0;"/><path d="M1705.5469,249.3438 L1707,249.3438 L1707,249.4531 C1707,249.8594 1707.0313,250.0156 1707.1094,250.1719 C1707.2656,250.4219 1707.5469,250.5781 1707.8438,250.5781 C1708.0938,250.5781 1708.3594,250.4375 1708.5156,250.2188 C1708.6406,250.0625 1708.6719,249.9063 1708.6719,249.4531 L1708.6719,247.5313 C1708.6719,247.375 1708.6719,247.3281 1708.6563,247.1719 C1708.5938,246.7031 1708.2813,246.3906 1707.8281,246.3906 C1707.5781,246.3906 1707.3125,246.5313 1707.1406,246.75 C1707.0313,246.9219 1707,247.0781 1707,247.5313 L1707,247.6563 L1705.5469,247.6563 L1705.5469,245.25 L1709.5313,245.25 L1709.5313,246.1094 C1709.5313,246.5156 1709.5625,246.6875 1709.6406,246.8438 C1709.8125,247.0938 1710.0938,247.25 1710.375,247.25 C1710.6406,247.25 1710.9063,247.1094 1711.0781,246.8906 C1711.1875,246.7188 1711.2188,246.5781 1711.2188,246.1094 L1711.2188,243.5625 L1703.5938,243.5625 C1703.1563,243.5625 1703.0313,243.5781 1702.875,243.6719 C1702.625,243.8281 1702.4688,244.125 1702.4688,244.4063 C1702.4688,244.6875 1702.6094,244.9375 1702.8281,245.1094 C1702.9844,245.2188 1703.1719,245.25 1703.5938,245.25 L1703.8438,245.25 L1703.8438,251.7656 L1703.5938,251.7656 C1703.1875,251.7656 1703.0313,251.7813 1702.875,251.8906 C1702.625,252.0625 1702.4688,252.3281 1702.4688,252.625 C1702.4688,252.8906 1702.6094,253.1406 1702.8281,253.2969 C1702.9688,253.4219 1703.2031,253.4688 1703.5938,253.4688 L1711.5938,253.4688 L1711.5938,250.8906 C1711.5938,250.4531 1711.5625,250.3125 1711.4844,250.1563 C1711.3125,249.9063 1711.0313,249.75 1710.75,249.75 C1710.4844,249.75 1710.2188,249.8594 1710.0469,250.1094 C1709.9375,250.2656 1709.9063,250.4063 1709.9063,250.8906 L1709.9063,251.7656 L1705.5469,251.7656 L1705.5469,249.3438 Z " fill="#000000"/><text fill="#000000" font-family="sans-serif" font-size="12" font-style="italic" lengthAdjust="spacing" textLength="77" x="1733.25" y="245.6387">«Dimension»</text><text fill="#000000" font-family="sans-serif" font-size="12" lengthAdjust="spacing" textLength="89" x="1727.25" y="259.6074">memorias_ram</text><line style="stroke:#A80036;stroke-width:1.5;" x1="1605" x2="1906" y1="267.4375" y2="267.4375"/><text fill="#000000" font-family="sans-serif" font-size="11" font-weight="bold" lengthAdjust="spacing" textLength="291" x="1610" y="281.6479">&lt;PK&gt;  MEMORIA_RAM_CODIGO nvarchar(255)</text><line style="stroke:#A80036;stroke-width:1.0;" x1="1605" x2="1906" y1="288.2422" y2="288.2422"/><text fill="#000000" font-family="sans-serif" font-size="11" lengthAdjust="spacing" textLength="107" x="1610" y="302.4526">TIPO nvarchar(255)</text><text fill="#000000" font-family="sans-serif" font-size="11" lengthAdjust="spacing" textLength="149" x="1610" y="315.2573">VELOCIDAD nvarchar(255)</text><text fill="#000000" font-family="sans-serif" font-size="11" lengthAdjust="spacing" textLength="149" x="1610" y="328.062">CAPACIDAD nvarchar(255)</text><text fill="#000000" font-family="sans-serif" font-size="11" lengthAdjust="spacing" textLength="152" x="1610" y="340.8667">FABRICANTE nvarchar(255)</text><!--MD5=[230f3a2707111c060ba4f556745a5725]
class placas_video--><rect codeLine="53" fill="#FEFECE" filter="url(#f1i0ylw5q9e6i5)" height="130.7656" id="placas_video" style="stroke:#A80036;stroke-width:1.5;" width="295" x="7" y="223"/><ellipse cx="110.75" cy="241.9688" fill="#ADD1B2" rx="11" ry="11" style="stroke:#A80036;stroke-width:1.0;"/><path d="M109.5469,242.8438 L111,242.8438 L111,242.9531 C111,243.3594 111.0313,243.5156 111.1094,243.6719 C111.2656,243.9219 111.5469,244.0781 111.8438,244.0781 C112.0938,244.0781 112.3594,243.9375 112.5156,243.7188 C112.6406,243.5625 112.6719,243.4063 112.6719,242.9531 L112.6719,241.0313 C112.6719,240.875 112.6719,240.8281 112.6563,240.6719 C112.5938,240.2031 112.2813,239.8906 111.8281,239.8906 C111.5781,239.8906 111.3125,240.0313 111.1406,240.25 C111.0313,240.4219 111,240.5781 111,241.0313 L111,241.1563 L109.5469,241.1563 L109.5469,238.75 L113.5313,238.75 L113.5313,239.6094 C113.5313,240.0156 113.5625,240.1875 113.6406,240.3438 C113.8125,240.5938 114.0938,240.75 114.375,240.75 C114.6406,240.75 114.9063,240.6094 115.0781,240.3906 C115.1875,240.2188 115.2188,240.0781 115.2188,239.6094 L115.2188,237.0625 L107.5938,237.0625 C107.1563,237.0625 107.0313,237.0781 106.875,237.1719 C106.625,237.3281 106.4688,237.625 106.4688,237.9063 C106.4688,238.1875 106.6094,238.4375 106.8281,238.6094 C106.9844,238.7188 107.1719,238.75 107.5938,238.75 L107.8438,238.75 L107.8438,245.2656 L107.5938,245.2656 C107.1875,245.2656 107.0313,245.2813 106.875,245.3906 C106.625,245.5625 106.4688,245.8281 106.4688,246.125 C106.4688,246.3906 106.6094,246.6406 106.8281,246.7969 C106.9688,246.9219 107.2031,246.9688 107.5938,246.9688 L115.5938,246.9688 L115.5938,244.3906 C115.5938,243.9531 115.5625,243.8125 115.4844,243.6563 C115.3125,243.4063 115.0313,243.25 114.75,243.25 C114.4844,243.25 114.2188,243.3594 114.0469,243.6094 C113.9375,243.7656 113.9063,243.9063 113.9063,244.3906 L113.9063,245.2656 L109.5469,245.2656 L109.5469,242.8438 Z " fill="#000000"/><text fill="#000000" font-family="sans-serif" font-size="12" font-style="italic" lengthAdjust="spacing" textLength="77" x="132.25" y="239.1387">«Dimension»</text><text fill="#000000" font-family="sans-serif" font-size="12" lengthAdjust="spacing" textLength="79" x="131.25" y="253.1074">placas_video</text><line style="stroke:#A80036;stroke-width:1.5;" x1="8" x2="301" y1="260.9375" y2="260.9375"/><text fill="#000000" font-family="sans-serif" font-size="11" font-weight="bold" lengthAdjust="spacing" textLength="283" x="13" y="275.1479">&lt;PK&gt; PLACA_VIDEO_CODIGO  decimal(18,0)</text><line style="stroke:#A80036;stroke-width:1.0;" x1="8" x2="301" y1="281.7422" y2="281.7422"/><text fill="#000000" font-family="sans-serif" font-size="11" lengthAdjust="spacing" textLength="212" x="13" y="295.9526">MODELO_PLACA_VIDEO  nvarchar(50)</text><text fill="#000000" font-family="sans-serif" font-size="11" lengthAdjust="spacing" textLength="122" x="13" y="308.7573">CHIPSET nvarchar(50)</text><text fill="#000000" font-family="sans-serif" font-size="11" lengthAdjust="spacing" textLength="149" x="13" y="321.562">CAPACIDAD nvarchar(255)</text><text fill="#000000" font-family="sans-serif" font-size="11" lengthAdjust="spacing" textLength="142" x="13" y="334.3667">VELOCIDAD nvarchar(50)</text><text fill="#000000" font-family="sans-serif" font-size="11" lengthAdjust="spacing" textLength="152" x="13" y="347.1714">FABRICANTE nvarchar(255)</text><!--MD5=[b89ad04c9aa13720d84f0645d3fffc84]
class accesorios--><rect codeLine="63" fill="#FEFECE" filter="url(#f1i0ylw5q9e6i5)" height="79.5469" id="accesorios" style="stroke:#A80036;stroke-width:1.5;" width="281" x="1942" y="248.5"/><ellipse cx="2041.75" cy="267.4688" fill="#ADD1B2" rx="11" ry="11" style="stroke:#A80036;stroke-width:1.0;"/><path d="M2040.5469,268.3438 L2042,268.3438 L2042,268.4531 C2042,268.8594 2042.0313,269.0156 2042.1094,269.1719 C2042.2656,269.4219 2042.5469,269.5781 2042.8438,269.5781 C2043.0938,269.5781 2043.3594,269.4375 2043.5156,269.2188 C2043.6406,269.0625 2043.6719,268.9063 2043.6719,268.4531 L2043.6719,266.5313 C2043.6719,266.375 2043.6719,266.3281 2043.6563,266.1719 C2043.5938,265.7031 2043.2813,265.3906 2042.8281,265.3906 C2042.5781,265.3906 2042.3125,265.5313 2042.1406,265.75 C2042.0313,265.9219 2042,266.0781 2042,266.5313 L2042,266.6563 L2040.5469,266.6563 L2040.5469,264.25 L2044.5313,264.25 L2044.5313,265.1094 C2044.5313,265.5156 2044.5625,265.6875 2044.6406,265.8438 C2044.8125,266.0938 2045.0938,266.25 2045.375,266.25 C2045.6406,266.25 2045.9063,266.1094 2046.0781,265.8906 C2046.1875,265.7188 2046.2188,265.5781 2046.2188,265.1094 L2046.2188,262.5625 L2038.5938,262.5625 C2038.1563,262.5625 2038.0313,262.5781 2037.875,262.6719 C2037.625,262.8281 2037.4688,263.125 2037.4688,263.4063 C2037.4688,263.6875 2037.6094,263.9375 2037.8281,264.1094 C2037.9844,264.2188 2038.1719,264.25 2038.5938,264.25 L2038.8438,264.25 L2038.8438,270.7656 L2038.5938,270.7656 C2038.1875,270.7656 2038.0313,270.7813 2037.875,270.8906 C2037.625,271.0625 2037.4688,271.3281 2037.4688,271.625 C2037.4688,271.8906 2037.6094,272.1406 2037.8281,272.2969 C2037.9688,272.4219 2038.2031,272.4688 2038.5938,272.4688 L2046.5938,272.4688 L2046.5938,269.8906 C2046.5938,269.4531 2046.5625,269.3125 2046.4844,269.1563 C2046.3125,268.9063 2046.0313,268.75 2045.75,268.75 C2045.4844,268.75 2045.2188,268.8594 2045.0469,269.1094 C2044.9375,269.2656 2044.9063,269.4063 2044.9063,269.8906 L2044.9063,270.7656 L2040.5469,270.7656 L2040.5469,268.3438 Z " fill="#000000"/><text fill="#000000" font-family="sans-serif" font-size="12" font-style="italic" lengthAdjust="spacing" textLength="77" x="2060.25" y="264.6387">«Dimension»</text><text fill="#000000" font-family="sans-serif" font-size="12" lengthAdjust="spacing" textLength="67" x="2065.25" y="278.6074">accesorios</text><line style="stroke:#A80036;stroke-width:1.5;" x1="1943" x2="2222" y1="286.4375" y2="286.4375"/><text fill="#000000" font-family="sans-serif" font-size="11" font-weight="bold" lengthAdjust="spacing" textLength="269" x="1948" y="300.6479">&lt;PK&gt;  CODIGO_ACCESORIO decimal(18,0)</text><line style="stroke:#A80036;stroke-width:1.0;" x1="1943" x2="2222" y1="307.2422" y2="307.2422"/><text fill="#000000" font-family="sans-serif" font-size="11" lengthAdjust="spacing" textLength="158" x="1948" y="321.4526">DESCRIPCION nvarchar(255)</text><!--MD5=[cfa88cc4e7e3a0a7cadfe23173916835]
class pc_placas_video--><rect codeLine="69" fill="#FEFECE" filter="url(#f1i0ylw5q9e6i5)" height="79.5469" id="pc_placas_video" style="stroke:#A80036;stroke-width:1.5;" width="295" x="7" y="433"/><ellipse cx="100.25" cy="451.9688" fill="#ADD1B2" rx="11" ry="11" style="stroke:#A80036;stroke-width:1.0;"/><path d="M99.0469,452.8438 L100.5,452.8438 L100.5,452.9531 C100.5,453.3594 100.5313,453.5156 100.6094,453.6719 C100.7656,453.9219 101.0469,454.0781 101.3438,454.0781 C101.5938,454.0781 101.8594,453.9375 102.0156,453.7188 C102.1406,453.5625 102.1719,453.4063 102.1719,452.9531 L102.1719,451.0313 C102.1719,450.875 102.1719,450.8281 102.1563,450.6719 C102.0938,450.2031 101.7813,449.8906 101.3281,449.8906 C101.0781,449.8906 100.8125,450.0313 100.6406,450.25 C100.5313,450.4219 100.5,450.5781 100.5,451.0313 L100.5,451.1563 L99.0469,451.1563 L99.0469,448.75 L103.0313,448.75 L103.0313,449.6094 C103.0313,450.0156 103.0625,450.1875 103.1406,450.3438 C103.3125,450.5938 103.5938,450.75 103.875,450.75 C104.1406,450.75 104.4063,450.6094 104.5781,450.3906 C104.6875,450.2188 104.7188,450.0781 104.7188,449.6094 L104.7188,447.0625 L97.0938,447.0625 C96.6563,447.0625 96.5313,447.0781 96.375,447.1719 C96.125,447.3281 95.9688,447.625 95.9688,447.9063 C95.9688,448.1875 96.1094,448.4375 96.3281,448.6094 C96.4844,448.7188 96.6719,448.75 97.0938,448.75 L97.3438,448.75 L97.3438,455.2656 L97.0938,455.2656 C96.6875,455.2656 96.5313,455.2813 96.375,455.3906 C96.125,455.5625 95.9688,455.8281 95.9688,456.125 C95.9688,456.3906 96.1094,456.6406 96.3281,456.7969 C96.4688,456.9219 96.7031,456.9688 97.0938,456.9688 L105.0938,456.9688 L105.0938,454.3906 C105.0938,453.9531 105.0625,453.8125 104.9844,453.6563 C104.8125,453.4063 104.5313,453.25 104.25,453.25 C103.9844,453.25 103.7188,453.3594 103.5469,453.6094 C103.4375,453.7656 103.4063,453.9063 103.4063,454.3906 L103.4063,455.2656 L99.0469,455.2656 L99.0469,452.8438 Z " fill="#000000"/><text fill="#000000" font-family="sans-serif" font-size="12" font-style="italic" lengthAdjust="spacing" textLength="53" x="144.25" y="449.1387">«Bridge»</text><text fill="#000000" font-family="sans-serif" font-size="12" lengthAdjust="spacing" textLength="100" x="120.75" y="463.1074">pc_placas_video</text><line style="stroke:#A80036;stroke-width:1.5;" x1="8" x2="301" y1="470.9375" y2="470.9375"/><line style="stroke:#A80036;stroke-width:1.5;" x1="8" x2="301" y1="478.9375" y2="478.9375"/><text fill="#000000" font-family="sans-serif" font-size="11" font-weight="bold" lengthAdjust="spacing" textLength="283" x="13" y="493.1479">&lt;PK&gt; PLACA_VIDEO_CODIGO  decimal(18,0)</text><text fill="#000000" font-family="sans-serif" font-size="11" font-weight="bold" lengthAdjust="spacing" textLength="237" x="13" y="505.9526">&lt;PK&gt;&lt;FK&gt; PC_CODIGO nvarchar(50)</text><!--MD5=[f47ede80fc595a9760b9c2bafb0ca953]
class pc_discos_rigidos--><rect codeLine="74" fill="#FEFECE" filter="url(#f1i0ylw5q9e6i5)" height="79.5469" id="pc_discos_rigidos" style="stroke:#A80036;stroke-width:1.5;" width="300" x="983.5" y="433"/><ellipse cx="1074.75" cy="451.9688" fill="#ADD1B2" rx="11" ry="11" style="stroke:#A80036;stroke-width:1.0;"/><path d="M1073.5469,452.8438 L1075,452.8438 L1075,452.9531 C1075,453.3594 1075.0313,453.5156 1075.1094,453.6719 C1075.2656,453.9219 1075.5469,454.0781 1075.8438,454.0781 C1076.0938,454.0781 1076.3594,453.9375 1076.5156,453.7188 C1076.6406,453.5625 1076.6719,453.4063 1076.6719,452.9531 L1076.6719,451.0313 C1076.6719,450.875 1076.6719,450.8281 1076.6563,450.6719 C1076.5938,450.2031 1076.2813,449.8906 1075.8281,449.8906 C1075.5781,449.8906 1075.3125,450.0313 1075.1406,450.25 C1075.0313,450.4219 1075,450.5781 1075,451.0313 L1075,451.1563 L1073.5469,451.1563 L1073.5469,448.75 L1077.5313,448.75 L1077.5313,449.6094 C1077.5313,450.0156 1077.5625,450.1875 1077.6406,450.3438 C1077.8125,450.5938 1078.0938,450.75 1078.375,450.75 C1078.6406,450.75 1078.9063,450.6094 1079.0781,450.3906 C1079.1875,450.2188 1079.2188,450.0781 1079.2188,449.6094 L1079.2188,447.0625 L1071.5938,447.0625 C1071.1563,447.0625 1071.0313,447.0781 1070.875,447.1719 C1070.625,447.3281 1070.4688,447.625 1070.4688,447.9063 C1070.4688,448.1875 1070.6094,448.4375 1070.8281,448.6094 C1070.9844,448.7188 1071.1719,448.75 1071.5938,448.75 L1071.8438,448.75 L1071.8438,455.2656 L1071.5938,455.2656 C1071.1875,455.2656 1071.0313,455.2813 1070.875,455.3906 C1070.625,455.5625 1070.4688,455.8281 1070.4688,456.125 C1070.4688,456.3906 1070.6094,456.6406 1070.8281,456.7969 C1070.9688,456.9219 1071.2031,456.9688 1071.5938,456.9688 L1079.5938,456.9688 L1079.5938,454.3906 C1079.5938,453.9531 1079.5625,453.8125 1079.4844,453.6563 C1079.3125,453.4063 1079.0313,453.25 1078.75,453.25 C1078.4844,453.25 1078.2188,453.3594 1078.0469,453.6094 C1077.9375,453.7656 1077.9063,453.9063 1077.9063,454.3906 L1077.9063,455.2656 L1073.5469,455.2656 L1073.5469,452.8438 Z " fill="#000000"/><text fill="#000000" font-family="sans-serif" font-size="12" font-style="italic" lengthAdjust="spacing" textLength="53" x="1123.25" y="449.1387">«Bridge»</text><text fill="#000000" font-family="sans-serif" font-size="12" lengthAdjust="spacing" textLength="109" x="1095.25" y="463.1074">pc_discos_rigidos</text><line style="stroke:#A80036;stroke-width:1.5;" x1="984.5" x2="1282.5" y1="470.9375" y2="470.9375"/><line style="stroke:#A80036;stroke-width:1.5;" x1="984.5" x2="1282.5" y1="478.9375" y2="478.9375"/><text fill="#000000" font-family="sans-serif" font-size="11" font-weight="bold" lengthAdjust="spacing" textLength="288" x="989.5" y="493.1479">&lt;PK&gt; DISCO_RIGIDO_CODIGO  nvarchar(255)</text><text fill="#000000" font-family="sans-serif" font-size="11" font-weight="bold" lengthAdjust="spacing" textLength="237" x="989.5" y="505.9526">&lt;PK&gt;&lt;FK&gt; PC_CODIGO nvarchar(50)</text><!--MD5=[e4ecab44223a6e28421cdfcbc1b10758]
class pc_memorias_ram--><rect codeLine="79" fill="#FEFECE" filter="url(#f1i0ylw5q9e6i5)" height="79.5469" id="pc_memorias_ram" style="stroke:#A80036;stroke-width:1.5;" width="303" x="1461" y="433"/><ellipse cx="1553.25" cy="451.9688" fill="#ADD1B2" rx="11" ry="11" style="stroke:#A80036;stroke-width:1.0;"/><path d="M1552.0469,452.8438 L1553.5,452.8438 L1553.5,452.9531 C1553.5,453.3594 1553.5313,453.5156 1553.6094,453.6719 C1553.7656,453.9219 1554.0469,454.0781 1554.3438,454.0781 C1554.5938,454.0781 1554.8594,453.9375 1555.0156,453.7188 C1555.1406,453.5625 1555.1719,453.4063 1555.1719,452.9531 L1555.1719,451.0313 C1555.1719,450.875 1555.1719,450.8281 1555.1563,450.6719 C1555.0938,450.2031 1554.7813,449.8906 1554.3281,449.8906 C1554.0781,449.8906 1553.8125,450.0313 1553.6406,450.25 C1553.5313,450.4219 1553.5,450.5781 1553.5,451.0313 L1553.5,451.1563 L1552.0469,451.1563 L1552.0469,448.75 L1556.0313,448.75 L1556.0313,449.6094 C1556.0313,450.0156 1556.0625,450.1875 1556.1406,450.3438 C1556.3125,450.5938 1556.5938,450.75 1556.875,450.75 C1557.1406,450.75 1557.4063,450.6094 1557.5781,450.3906 C1557.6875,450.2188 1557.7188,450.0781 1557.7188,449.6094 L1557.7188,447.0625 L1550.0938,447.0625 C1549.6563,447.0625 1549.5313,447.0781 1549.375,447.1719 C1549.125,447.3281 1548.9688,447.625 1548.9688,447.9063 C1548.9688,448.1875 1549.1094,448.4375 1549.3281,448.6094 C1549.4844,448.7188 1549.6719,448.75 1550.0938,448.75 L1550.3438,448.75 L1550.3438,455.2656 L1550.0938,455.2656 C1549.6875,455.2656 1549.5313,455.2813 1549.375,455.3906 C1549.125,455.5625 1548.9688,455.8281 1548.9688,456.125 C1548.9688,456.3906 1549.1094,456.6406 1549.3281,456.7969 C1549.4688,456.9219 1549.7031,456.9688 1550.0938,456.9688 L1558.0938,456.9688 L1558.0938,454.3906 C1558.0938,453.9531 1558.0625,453.8125 1557.9844,453.6563 C1557.8125,453.4063 1557.5313,453.25 1557.25,453.25 C1556.9844,453.25 1556.7188,453.3594 1556.5469,453.6094 C1556.4375,453.7656 1556.4063,453.9063 1556.4063,454.3906 L1556.4063,455.2656 L1552.0469,455.2656 L1552.0469,452.8438 Z " fill="#000000"/><text fill="#000000" font-family="sans-serif" font-size="12" font-style="italic" lengthAdjust="spacing" textLength="53" x="1602.25" y="449.1387">«Bridge»</text><text fill="#000000" font-family="sans-serif" font-size="12" lengthAdjust="spacing" textLength="110" x="1573.75" y="463.1074">pc_memorias_ram</text><line style="stroke:#A80036;stroke-width:1.5;" x1="1462" x2="1763" y1="470.9375" y2="470.9375"/><line style="stroke:#A80036;stroke-width:1.5;" x1="1462" x2="1763" y1="478.9375" y2="478.9375"/><text fill="#000000" font-family="sans-serif" font-size="11" font-weight="bold" lengthAdjust="spacing" textLength="291" x="1467" y="493.1479">&lt;PK&gt; MEMORIA_RAM_CODIGO  nvarchar(255)</text><text fill="#000000" font-family="sans-serif" font-size="11" font-weight="bold" lengthAdjust="spacing" textLength="237" x="1467" y="505.9526">&lt;PK&gt;&lt;FK&gt; PC_CODIGO nvarchar(50)</text><!--MD5=[3ab6a1b6d34d74b06d4e492601a80325]
class COMPRAS_ACCESORIO--><rect codeLine="84" fill="#FEFECE" filter="url(#f1i0ylw5q9e6i5)" height="117.9609" id="COMPRAS_ACCESORIO" style="stroke:#A80036;stroke-width:1.5;" width="310" x="937.5" y="26"/><ellipse cx="1022.25" cy="44.9688" fill="#ADD1B2" rx="11" ry="11" style="stroke:#A80036;stroke-width:1.0;"/><path d="M1021.0469,45.8438 L1022.5,45.8438 L1022.5,45.9531 C1022.5,46.3594 1022.5313,46.5156 1022.6094,46.6719 C1022.7656,46.9219 1023.0469,47.0781 1023.3438,47.0781 C1023.5938,47.0781 1023.8594,46.9375 1024.0156,46.7188 C1024.1406,46.5625 1024.1719,46.4063 1024.1719,45.9531 L1024.1719,44.0313 C1024.1719,43.875 1024.1719,43.8281 1024.1563,43.6719 C1024.0938,43.2031 1023.7813,42.8906 1023.3281,42.8906 C1023.0781,42.8906 1022.8125,43.0313 1022.6406,43.25 C1022.5313,43.4219 1022.5,43.5781 1022.5,44.0313 L1022.5,44.1563 L1021.0469,44.1563 L1021.0469,41.75 L1025.0313,41.75 L1025.0313,42.6094 C1025.0313,43.0156 1025.0625,43.1875 1025.1406,43.3438 C1025.3125,43.5938 1025.5938,43.75 1025.875,43.75 C1026.1406,43.75 1026.4063,43.6094 1026.5781,43.3906 C1026.6875,43.2188 1026.7188,43.0781 1026.7188,42.6094 L1026.7188,40.0625 L1019.0938,40.0625 C1018.6563,40.0625 1018.5313,40.0781 1018.375,40.1719 C1018.125,40.3281 1017.9688,40.625 1017.9688,40.9063 C1017.9688,41.1875 1018.1094,41.4375 1018.3281,41.6094 C1018.4844,41.7188 1018.6719,41.75 1019.0938,41.75 L1019.3438,41.75 L1019.3438,48.2656 L1019.0938,48.2656 C1018.6875,48.2656 1018.5313,48.2813 1018.375,48.3906 C1018.125,48.5625 1017.9688,48.8281 1017.9688,49.125 C1017.9688,49.3906 1018.1094,49.6406 1018.3281,49.7969 C1018.4688,49.9219 1018.7031,49.9688 1019.0938,49.9688 L1027.0938,49.9688 L1027.0938,47.3906 C1027.0938,46.9531 1027.0625,46.8125 1026.9844,46.6563 C1026.8125,46.4063 1026.5313,46.25 1026.25,46.25 C1025.9844,46.25 1025.7188,46.3594 1025.5469,46.6094 C1025.4375,46.7656 1025.4063,46.9063 1025.4063,47.3906 L1025.4063,48.2656 L1021.0469,48.2656 L1021.0469,45.8438 Z " fill="#000000"/><text fill="#000000" font-family="sans-serif" font-size="12" font-style="italic" lengthAdjust="spacing" textLength="46" x="1085.75" y="42.1387">«Facts»</text><text fill="#000000" font-family="sans-serif" font-size="12" lengthAdjust="spacing" textLength="132" x="1042.75" y="56.1074">COMPRAS_ACCESORIO</text><line style="stroke:#A80036;stroke-width:1.5;" x1="938.5" x2="1246.5" y1="63.9375" y2="63.9375"/><text fill="#000000" font-family="sans-serif" font-size="11" font-weight="bold" lengthAdjust="spacing" textLength="298" x="943.5" y="78.1479">&lt;PK&gt;&lt;FK&gt; CODIGO_ACCESORIO decimal(18,0)</text><text fill="#000000" font-family="sans-serif" font-size="11" font-weight="bold" lengthAdjust="spacing" textLength="220" x="943.5" y="90.9526">&lt;PK&gt;&lt;FK&gt; CODIGO_SUCURSAL int</text><text fill="#000000" font-family="sans-serif" font-size="11" font-weight="bold" lengthAdjust="spacing" textLength="203" x="943.5" y="103.7573">&lt;PK&gt;&lt;FK&gt; CODIGO_TIEMPO int</text><line style="stroke:#A80036;stroke-width:1.0;" x1="938.5" x2="1246.5" y1="110.3516" y2="110.3516"/><text fill="#000000" font-family="sans-serif" font-size="11" lengthAdjust="spacing" textLength="141" x="943.5" y="124.562">CANTIDAD decimal(18,0)</text><text fill="#000000" font-family="sans-serif" font-size="11" lengthAdjust="spacing" textLength="239" x="943.5" y="137.3667">PROMEDIO_PRECIO_COMPRA decimal(18,2)</text><!--MD5=[397651b10071f7513f4b679488bcf27d]
class COMPRAS_PC--><rect codeLine="93" fill="#FEFECE" filter="url(#f1i0ylw5q9e6i5)" height="117.9609" id="COMPRAS_PC" style="stroke:#A80036;stroke-width:1.5;" width="251" x="361" y="26"/><ellipse cx="443.75" cy="44.9688" fill="#ADD1B2" rx="11" ry="11" style="stroke:#A80036;stroke-width:1.0;"/><path d="M442.5469,45.8438 L444,45.8438 L444,45.9531 C444,46.3594 444.0313,46.5156 444.1094,46.6719 C444.2656,46.9219 444.5469,47.0781 444.8438,47.0781 C445.0938,47.0781 445.3594,46.9375 445.5156,46.7188 C445.6406,46.5625 445.6719,46.4063 445.6719,45.9531 L445.6719,44.0313 C445.6719,43.875 445.6719,43.8281 445.6563,43.6719 C445.5938,43.2031 445.2813,42.8906 444.8281,42.8906 C444.5781,42.8906 444.3125,43.0313 444.1406,43.25 C444.0313,43.4219 444,43.5781 444,44.0313 L444,44.1563 L442.5469,44.1563 L442.5469,41.75 L446.5313,41.75 L446.5313,42.6094 C446.5313,43.0156 446.5625,43.1875 446.6406,43.3438 C446.8125,43.5938 447.0938,43.75 447.375,43.75 C447.6406,43.75 447.9063,43.6094 448.0781,43.3906 C448.1875,43.2188 448.2188,43.0781 448.2188,42.6094 L448.2188,40.0625 L440.5938,40.0625 C440.1563,40.0625 440.0313,40.0781 439.875,40.1719 C439.625,40.3281 439.4688,40.625 439.4688,40.9063 C439.4688,41.1875 439.6094,41.4375 439.8281,41.6094 C439.9844,41.7188 440.1719,41.75 440.5938,41.75 L440.8438,41.75 L440.8438,48.2656 L440.5938,48.2656 C440.1875,48.2656 440.0313,48.2813 439.875,48.3906 C439.625,48.5625 439.4688,48.8281 439.4688,49.125 C439.4688,49.3906 439.6094,49.6406 439.8281,49.7969 C439.9688,49.9219 440.2031,49.9688 440.5938,49.9688 L448.5938,49.9688 L448.5938,47.3906 C448.5938,46.9531 448.5625,46.8125 448.4844,46.6563 C448.3125,46.4063 448.0313,46.25 447.75,46.25 C447.4844,46.25 447.2188,46.3594 447.0469,46.6094 C446.9375,46.7656 446.9063,46.9063 446.9063,47.3906 L446.9063,48.2656 L442.5469,48.2656 L442.5469,45.8438 Z " fill="#000000"/><text fill="#000000" font-family="sans-serif" font-size="12" font-style="italic" lengthAdjust="spacing" textLength="46" x="479.75" y="42.1387">«Facts»</text><text fill="#000000" font-family="sans-serif" font-size="12" lengthAdjust="spacing" textLength="77" x="464.25" y="56.1074">COMPRAS_PC</text><line style="stroke:#A80036;stroke-width:1.5;" x1="362" x2="611" y1="63.9375" y2="63.9375"/><text fill="#000000" font-family="sans-serif" font-size="11" font-weight="bold" lengthAdjust="spacing" textLength="237" x="367" y="78.1479">&lt;PK&gt;&lt;FK&gt; PC_CODIGO nvarchar(50)</text><text fill="#000000" font-family="sans-serif" font-size="11" font-weight="bold" lengthAdjust="spacing" textLength="220" x="367" y="90.9526">&lt;PK&gt;&lt;FK&gt; CODIGO_SUCURSAL int</text><text fill="#000000" font-family="sans-serif" font-size="11" font-weight="bold" lengthAdjust="spacing" textLength="203" x="367" y="103.7573">&lt;PK&gt;&lt;FK&gt; CODIGO_TIEMPO int</text><line style="stroke:#A80036;stroke-width:1.0;" x1="362" x2="611" y1="110.3516" y2="110.3516"/><text fill="#000000" font-family="sans-serif" font-size="11" lengthAdjust="spacing" textLength="141" x="367" y="124.562">CANTIDAD decimal(18,0)</text><text fill="#000000" font-family="sans-serif" font-size="11" lengthAdjust="spacing" textLength="239" x="367" y="137.3667">PROMEDIO_PRECIO_COMPRA decimal(18,2)</text><!--MD5=[e0923d1074b1f3fb1242922beb286f2e]
class VENTAS_ACCESORIO--><rect codeLine="102" fill="#FEFECE" filter="url(#f1i0ylw5q9e6i5)" height="156.375" id="VENTAS_ACCESORIO" style="stroke:#A80036;stroke-width:1.5;" width="310" x="1282.5" y="7"/><ellipse cx="1372.75" cy="25.9688" fill="#ADD1B2" rx="11" ry="11" style="stroke:#A80036;stroke-width:1.0;"/><path d="M1371.5469,26.8438 L1373,26.8438 L1373,26.9531 C1373,27.3594 1373.0313,27.5156 1373.1094,27.6719 C1373.2656,27.9219 1373.5469,28.0781 1373.8438,28.0781 C1374.0938,28.0781 1374.3594,27.9375 1374.5156,27.7188 C1374.6406,27.5625 1374.6719,27.4063 1374.6719,26.9531 L1374.6719,25.0313 C1374.6719,24.875 1374.6719,24.8281 1374.6563,24.6719 C1374.5938,24.2031 1374.2813,23.8906 1373.8281,23.8906 C1373.5781,23.8906 1373.3125,24.0313 1373.1406,24.25 C1373.0313,24.4219 1373,24.5781 1373,25.0313 L1373,25.1563 L1371.5469,25.1563 L1371.5469,22.75 L1375.5313,22.75 L1375.5313,23.6094 C1375.5313,24.0156 1375.5625,24.1875 1375.6406,24.3438 C1375.8125,24.5938 1376.0938,24.75 1376.375,24.75 C1376.6406,24.75 1376.9063,24.6094 1377.0781,24.3906 C1377.1875,24.2188 1377.2188,24.0781 1377.2188,23.6094 L1377.2188,21.0625 L1369.5938,21.0625 C1369.1563,21.0625 1369.0313,21.0781 1368.875,21.1719 C1368.625,21.3281 1368.4688,21.625 1368.4688,21.9063 C1368.4688,22.1875 1368.6094,22.4375 1368.8281,22.6094 C1368.9844,22.7188 1369.1719,22.75 1369.5938,22.75 L1369.8438,22.75 L1369.8438,29.2656 L1369.5938,29.2656 C1369.1875,29.2656 1369.0313,29.2813 1368.875,29.3906 C1368.625,29.5625 1368.4688,29.8281 1368.4688,30.125 C1368.4688,30.3906 1368.6094,30.6406 1368.8281,30.7969 C1368.9688,30.9219 1369.2031,30.9688 1369.5938,30.9688 L1377.5938,30.9688 L1377.5938,28.3906 C1377.5938,27.9531 1377.5625,27.8125 1377.4844,27.6563 C1377.3125,27.4063 1377.0313,27.25 1376.75,27.25 C1376.4844,27.25 1376.2188,27.3594 1376.0469,27.6094 C1375.9375,27.7656 1375.9063,27.9063 1375.9063,28.3906 L1375.9063,29.2656 L1371.5469,29.2656 L1371.5469,26.8438 Z " fill="#000000"/><text fill="#000000" font-family="sans-serif" font-size="12" font-style="italic" lengthAdjust="spacing" textLength="46" x="1430.75" y="23.1387">«Facts»</text><text fill="#000000" font-family="sans-serif" font-size="12" lengthAdjust="spacing" textLength="121" x="1393.25" y="37.1074">VENTAS_ACCESORIO</text><line style="stroke:#A80036;stroke-width:1.5;" x1="1283.5" x2="1591.5" y1="44.9375" y2="44.9375"/><text fill="#000000" font-family="sans-serif" font-size="11" font-weight="bold" lengthAdjust="spacing" textLength="298" x="1288.5" y="59.1479">&lt;PK&gt;&lt;FK&gt; CODIGO_ACCESORIO decimal(18,0)</text><text fill="#000000" font-family="sans-serif" font-size="11" font-weight="bold" lengthAdjust="spacing" textLength="220" x="1288.5" y="71.9526">&lt;PK&gt;&lt;FK&gt; CODIGO_SUCURSAL int</text><text fill="#000000" font-family="sans-serif" font-size="11" font-weight="bold" lengthAdjust="spacing" textLength="203" x="1288.5" y="84.7573">&lt;PK&gt;&lt;FK&gt; CODIGO_TIEMPO int</text><line style="stroke:#A80036;stroke-width:1.0;" x1="1283.5" x2="1591.5" y1="91.3516" y2="91.3516"/><text fill="#000000" font-family="sans-serif" font-size="11" lengthAdjust="spacing" textLength="141" x="1288.5" y="105.562">CANTIDAD decimal(18,0)</text><text fill="#000000" font-family="sans-serif" font-size="11" lengthAdjust="spacing" textLength="230" x="1288.5" y="118.3667">PROMEDIO_PRECIO_VENTA decimal(18,2)</text><text fill="#000000" font-family="sans-serif" font-size="11" lengthAdjust="spacing" textLength="240" x="1288.5" y="131.1714">PROMEDIO_DIAS_EN_STOCK decimal(18,2)</text><text fill="#000000" font-family="sans-serif" font-size="11" lengthAdjust="spacing" textLength="208" x="1288.5" y="143.9761">RANGO_EDAD_CLIENTES varchar(10)</text><text fill="#000000" font-family="sans-serif" font-size="11" lengthAdjust="spacing" textLength="243" x="1288.5" y="156.7808">SEXO_MAYORITARIO_CLIENTES varchar(20)</text><!--MD5=[deeb17ad47d5dc1e6ac26f3b915a1c4d]
class VENTAS_PC--><rect codeLine="114" fill="#FEFECE" filter="url(#f1i0ylw5q9e6i5)" height="156.375" id="VENTAS_PC" style="stroke:#A80036;stroke-width:1.5;" width="255" x="647" y="7"/><ellipse cx="737.25" cy="25.9688" fill="#ADD1B2" rx="11" ry="11" style="stroke:#A80036;stroke-width:1.0;"/><path d="M736.0469,26.8438 L737.5,26.8438 L737.5,26.9531 C737.5,27.3594 737.5313,27.5156 737.6094,27.6719 C737.7656,27.9219 738.0469,28.0781 738.3438,28.0781 C738.5938,28.0781 738.8594,27.9375 739.0156,27.7188 C739.1406,27.5625 739.1719,27.4063 739.1719,26.9531 L739.1719,25.0313 C739.1719,24.875 739.1719,24.8281 739.1563,24.6719 C739.0938,24.2031 738.7813,23.8906 738.3281,23.8906 C738.0781,23.8906 737.8125,24.0313 737.6406,24.25 C737.5313,24.4219 737.5,24.5781 737.5,25.0313 L737.5,25.1563 L736.0469,25.1563 L736.0469,22.75 L740.0313,22.75 L740.0313,23.6094 C740.0313,24.0156 740.0625,24.1875 740.1406,24.3438 C740.3125,24.5938 740.5938,24.75 740.875,24.75 C741.1406,24.75 741.4063,24.6094 741.5781,24.3906 C741.6875,24.2188 741.7188,24.0781 741.7188,23.6094 L741.7188,21.0625 L734.0938,21.0625 C733.6563,21.0625 733.5313,21.0781 733.375,21.1719 C733.125,21.3281 732.9688,21.625 732.9688,21.9063 C732.9688,22.1875 733.1094,22.4375 733.3281,22.6094 C733.4844,22.7188 733.6719,22.75 734.0938,22.75 L734.3438,22.75 L734.3438,29.2656 L734.0938,29.2656 C733.6875,29.2656 733.5313,29.2813 733.375,29.3906 C733.125,29.5625 732.9688,29.8281 732.9688,30.125 C732.9688,30.3906 733.1094,30.6406 733.3281,30.7969 C733.4688,30.9219 733.7031,30.9688 734.0938,30.9688 L742.0938,30.9688 L742.0938,28.3906 C742.0938,27.9531 742.0625,27.8125 741.9844,27.6563 C741.8125,27.4063 741.5313,27.25 741.25,27.25 C740.9844,27.25 740.7188,27.3594 740.5469,27.6094 C740.4375,27.7656 740.4063,27.9063 740.4063,28.3906 L740.4063,29.2656 L736.0469,29.2656 L736.0469,26.8438 Z " fill="#000000"/><text fill="#000000" font-family="sans-serif" font-size="12" font-style="italic" lengthAdjust="spacing" textLength="46" x="767.75" y="23.1387">«Facts»</text><text fill="#000000" font-family="sans-serif" font-size="12" lengthAdjust="spacing" textLength="66" x="757.75" y="37.1074">VENTAS_PC</text><line style="stroke:#A80036;stroke-width:1.5;" x1="648" x2="901" y1="44.9375" y2="44.9375"/><text fill="#000000" font-family="sans-serif" font-size="11" font-weight="bold" lengthAdjust="spacing" textLength="237" x="653" y="59.1479">&lt;PK&gt;&lt;FK&gt; PC_CODIGO nvarchar(50)</text><text fill="#000000" font-family="sans-serif" font-size="11" font-weight="bold" lengthAdjust="spacing" textLength="220" x="653" y="71.9526">&lt;PK&gt;&lt;FK&gt; CODIGO_SUCURSAL int</text><text fill="#000000" font-family="sans-serif" font-size="11" font-weight="bold" lengthAdjust="spacing" textLength="203" x="653" y="84.7573">&lt;PK&gt;&lt;FK&gt; CODIGO_TIEMPO int</text><line style="stroke:#A80036;stroke-width:1.0;" x1="648" x2="901" y1="91.3516" y2="91.3516"/><text fill="#000000" font-family="sans-serif" font-size="11" lengthAdjust="spacing" textLength="141" x="653" y="105.562">CANTIDAD decimal(18,0)</text><text fill="#000000" font-family="sans-serif" font-size="11" lengthAdjust="spacing" textLength="230" x="653" y="118.3667">PROMEDIO_PRECIO_VENTA decimal(18,2)</text><text fill="#000000" font-family="sans-serif" font-size="11" lengthAdjust="spacing" textLength="240" x="653" y="131.1714">PROMEDIO_DIAS_EN_STOCK decimal(18,2)</text><text fill="#000000" font-family="sans-serif" font-size="11" lengthAdjust="spacing" textLength="208" x="653" y="143.9761">RANGO_EDAD_CLIENTES varchar(10)</text><text fill="#000000" font-family="sans-serif" font-size="11" lengthAdjust="spacing" textLength="243" x="653" y="156.7808">SEXO_MAYORITARIO_CLIENTES varchar(20)</text><!--MD5=[209d8fb2d52981d30c13b5a9c23d5386]
link COMPRAS_ACCESORIO to sucursales--><path codeLine="126" d="M993.417,147.812 C953.91,172.458 908.514,200.778 868.969,225.448 " fill="none" id="COMPRAS_ACCESORIO-sucursales" style="stroke:#A80036;stroke-width:1.0;"/><line style="stroke:#A80036;stroke-width:1.0;" x1="868.1851" x2="863.9499" y1="230.6499" y2="223.8629"/><line style="stroke:#A80036;stroke-width:1.0;" x1="870.7302" x2="866.4951" y1="229.0618" y2="222.2747"/><line style="stroke:#A80036;stroke-width:1.0;" x1="869.461" x2="862.674" y1="225.1389" y2="229.374"/><line style="stroke:#A80036;stroke-width:1.0;" x1="993.9971" x2="998.2315" y1="142.7355" y2="149.5229"/><line style="stroke:#A80036;stroke-width:1.0;" x1="991.4518" x2="995.6862" y1="144.3234" y2="151.1108"/><line style="stroke:#A80036;stroke-width:1.0;" x1="992.7205" x2="999.508" y1="148.2464" y2="144.012"/><!--MD5=[76127240b2fa4f06e9994f7ac8081051]
link COMPRAS_ACCESORIO to accesorios--><path codeLine="127" d="M1215.51,146.859 C1231.7,153.142 1248.3,158.763 1264.5,163 C1549.46,237.522 1638.34,153.238 1924.5,223 C1947.42,228.589 1971.38,236.942 1993.5,245.799 " fill="none" id="COMPRAS_ACCESORIO-accesorios" style="stroke:#A80036;stroke-width:1.0;"/><line style="stroke:#A80036;stroke-width:1.0;" x1="1997.7952" x2="1994.7763" y1="243.2213" y2="250.6298"/><line style="stroke:#A80036;stroke-width:1.0;" x1="1995.017" x2="1991.9981" y1="242.0892" y2="249.4977"/><line style="stroke:#A80036;stroke-width:1.0;" x1="1992.5815" x2="1999.99" y1="245.4161" y2="248.435"/><line style="stroke:#A80036;stroke-width:1.0;" x1="1210.8512" x2="1213.7896" y1="149.3186" y2="141.8778"/><line style="stroke:#A80036;stroke-width:1.0;" x1="1213.6415" x2="1216.5799" y1="150.4205" y2="142.9797"/><line style="stroke:#A80036;stroke-width:1.0;" x1="1216.0408" x2="1208.6" y1="147.0674" y2="144.129"/><!--MD5=[ad410fc61367a4e999b7a08ebabe2240]
link COMPRAS_ACCESORIO to tiempos--><path codeLine="128" d="M1085.39,151.08 C1082.42,178.32 1079.01,209.554 1076.2,235.256 " fill="none" id="COMPRAS_ACCESORIO-tiempos" style="stroke:#A80036;stroke-width:1.0;"/><line style="stroke:#A80036;stroke-width:1.0;" x1="1079.8407" x2="1071.888" y1="238.809" y2="237.9403"/><line style="stroke:#A80036;stroke-width:1.0;" x1="1080.1665" x2="1072.2138" y1="235.8268" y2="234.958"/><line style="stroke:#A80036;stroke-width:1.0;" x1="1076.2988" x2="1075.43" y1="234.3983" y2="242.351"/><line style="stroke:#A80036;stroke-width:1.0;" x1="1081.76" x2="1089.7129" y1="147.5549" y2="148.422"/><line style="stroke:#A80036;stroke-width:1.0;" x1="1081.4348" x2="1089.3877" y1="150.5372" y2="151.4043"/><line style="stroke:#A80036;stroke-width:1.0;" x1="1085.3029" x2="1086.17" y1="151.9649" y2="144.012"/><!--MD5=[eb230da6db62b2238cfe488a97b83e99]
link VENTAS_ACCESORIO to sucursales--><path codeLine="130" d="M1275.22,159.678 C1271.63,160.837 1268.05,161.947 1264.5,163 C1101.41,211.33 1047.39,167.779 886.5,223 C883.024,224.193 879.53,225.485 876.034,226.86 " fill="none" id="VENTAS_ACCESORIO-sucursales" style="stroke:#A80036;stroke-width:1.0;"/><line style="stroke:#A80036;stroke-width:1.0;" x1="874.5262" x2="871.5056" y1="231.7956" y2="224.3878"/><line style="stroke:#A80036;stroke-width:1.0;" x1="877.3042" x2="874.2835" y1="230.6629" y2="223.2551"/><line style="stroke:#A80036;stroke-width:1.0;" x1="876.7198" x2="869.312" y1="226.5814" y2="229.602"/><line style="stroke:#A80036;stroke-width:1.0;" x1="1277.0856" x2="1279.5997" y1="154.8497" y2="162.4444"/><line style="stroke:#A80036;stroke-width:1.0;" x1="1274.2376" x2="1276.7517" y1="155.7925" y2="163.3872"/><line style="stroke:#A80036;stroke-width:1.0;" x1="1274.5453" x2="1282.14" y1="159.9041" y2="157.39"/><!--MD5=[8263f41ba019caa177be4fdfed771d7f]
link VENTAS_ACCESORIO to accesorios--><path codeLine="131" d="M1599.51,126.645 C1694.93,151.805 1817.52,186.25 1924.5,223 C1944.26,229.789 1965.13,237.733 1984.99,245.68 " fill="none" id="VENTAS_ACCESORIO-accesorios" style="stroke:#A80036;stroke-width:1.0;"/><line style="stroke:#A80036;stroke-width:1.0;" x1="1989.4631" x2="1986.4756" y1="243.1686" y2="250.5899"/><line style="stroke:#A80036;stroke-width:1.0;" x1="1986.6801" x2="1983.6927" y1="242.0484" y2="249.4696"/><line style="stroke:#A80036;stroke-width:1.0;" x1="1984.2587" x2="1991.68" y1="245.3856" y2="248.373"/><line style="stroke:#A80036;stroke-width:1.0;" x1="1595.5373" x2="1597.578" y1="129.738" y2="122.0027"/><line style="stroke:#A80036;stroke-width:1.0;" x1="1598.438" x2="1600.4788" y1="130.5033" y2="122.768"/><line style="stroke:#A80036;stroke-width:1.0;" x1="1600.4253" x2="1592.69" y1="126.8908" y2="124.85"/><!--MD5=[161bfea9704a2dc8a7488d57c7d92673]
link VENTAS_ACCESORIO to tiempos--><path codeLine="132" d="M1290.86,166.512 C1246.15,191.058 1198.4,217.276 1158.82,239.008 " fill="none" id="VENTAS_ACCESORIO-tiempos" style="stroke:#A80036;stroke-width:1.0;"/><line style="stroke:#A80036;stroke-width:1.0;" x1="1157.9691" x2="1154.1291" y1="244.0461" y2="237.0279"/><line style="stroke:#A80036;stroke-width:1.0;" x1="1160.6009" x2="1156.7609" y1="242.6061" y2="235.5879"/><line style="stroke:#A80036;stroke-width:1.0;" x1="1159.5582" x2="1152.54" y1="238.617" y2="242.457"/><line style="stroke:#A80036;stroke-width:1.0;" x1="1291.7483" x2="1295.6001" y1="161.4611" y2="168.4727"/><line style="stroke:#A80036;stroke-width:1.0;" x1="1289.1189" x2="1292.9707" y1="162.9055" y2="169.9172"/><line style="stroke:#A80036;stroke-width:1.0;" x1="1290.1683" x2="1297.18" y1="166.8928" y2="163.041"/><!--MD5=[6364ed4a8d5b2fa008a285afb4904938]
link COMPRAS_PC to sucursales--><path codeLine="135" d="M573.749,148.122 C608.048,172.544 647.358,200.533 681.709,224.992 " fill="none" id="COMPRAS_PC-sucursales" style="stroke:#A80036;stroke-width:1.0;"/><line style="stroke:#A80036;stroke-width:1.0;" x1="686.6803" x2="682.0406" y1="223.6216" y2="230.1387"/><line style="stroke:#A80036;stroke-width:1.0;" x1="684.2364" x2="679.5966" y1="221.8817" y2="228.3988"/><line style="stroke:#A80036;stroke-width:1.0;" x1="681.1019" x2="687.619" y1="224.5603" y2="229.2"/><line style="stroke:#A80036;stroke-width:1.0;" x1="568.9147" x2="573.5544" y1="149.5904" y2="143.0733"/><line style="stroke:#A80036;stroke-width:1.0;" x1="571.3586" x2="575.9984" y1="151.3303" y2="144.8132"/><line style="stroke:#A80036;stroke-width:1.0;" x1="574.4931" x2="567.976" y1="148.6517" y2="144.012"/><!--MD5=[8c8bba5857cb6f6fecc55c33b0fe76fd]
link COMPRAS_PC to pcs--><path codeLine="136" d="M487.797,151.332 C488.246,173.955 488.749,199.31 489.199,221.951 " fill="none" id="COMPRAS_PC-pcs" style="stroke:#A80036;stroke-width:1.0;"/><line style="stroke:#A80036;stroke-width:1.0;" x1="493.263" x2="485.2646" y1="225.1216" y2="225.28"/><line style="stroke:#A80036;stroke-width:1.0;" x1="493.2036" x2="485.2052" y1="222.1222" y2="222.2806"/><line style="stroke:#A80036;stroke-width:1.0;" x1="489.1846" x2="489.343" y1="221.2016" y2="229.2"/><line style="stroke:#A80036;stroke-width:1.0;" x1="483.732" x2="491.7304" y1="148.0904" y2="147.932"/><line style="stroke:#A80036;stroke-width:1.0;" x1="483.7914" x2="491.7898" y1="151.0898" y2="150.9314"/><line style="stroke:#A80036;stroke-width:1.0;" x1="487.8104" x2="487.652" y1="152.0104" y2="144.012"/><!--MD5=[9fd734a82721da1eb6824b74fdfaacda]
link COMPRAS_PC to tiempos--><path codeLine="137" d="M592.83,147.177 C604.988,152.988 617.373,158.412 629.5,163 C739.207,204.5 773.88,190.218 886.5,223 C904.302,228.182 922.91,234.099 941.163,240.2 " fill="none" id="COMPRAS_PC-tiempos" style="stroke:#A80036;stroke-width:1.0;"/><line style="stroke:#A80036;stroke-width:1.0;" x1="945.3526" x2="942.8042" y1="237.3892" y2="244.9724"/><line style="stroke:#A80036;stroke-width:1.0;" x1="942.5089" x2="939.9605" y1="236.4335" y2="244.0167"/><line style="stroke:#A80036;stroke-width:1.0;" x1="940.2868" x2="947.87" y1="239.9066" y2="242.455"/><line style="stroke:#A80036;stroke-width:1.0;" x1="588.3489" x2="591.8395" y1="149.4485" y2="142.2501"/><line style="stroke:#A80036;stroke-width:1.0;" x1="591.0482" x2="594.5388" y1="150.7574" y2="143.5591"/><line style="stroke:#A80036;stroke-width:1.0;" x1="593.6933" x2="586.495" y1="147.5946" y2="144.104"/><!--MD5=[4754f8f7ba18caf54181f6e0eacd58c5]
link pcs to procesadores--><path codeLine="139" d="M494.077,354.786 C495.004,371.704 496.003,389.921 496.929,406.834 " fill="none" id="pcs-procesadores" style="stroke:#A80036;stroke-width:1.0;"/><line style="stroke:#A80036;stroke-width:1.0;" x1="501.0973" x2="493.1092" y1="409.7812" y2="410.2187"/><line style="stroke:#A80036;stroke-width:1.0;" x1="500.9332" x2="492.9452" y1="406.7857" y2="407.2232"/><line style="stroke:#A80036;stroke-width:1.0;" x1="496.8845" x2="497.322" y1="406.006" y2="413.994"/><line style="stroke:#A80036;stroke-width:1.0;" x1="489.9176" x2="497.9055" y1="351.9595" y2="351.5204"/><line style="stroke:#A80036;stroke-width:1.0;" x1="490.0823" x2="498.0702" y1="354.955" y2="354.5159"/><line style="stroke:#A80036;stroke-width:1.0;" x1="494.1311" x2="493.692" y1="355.7339" y2="347.746"/><!--MD5=[7e4172980982bb54a49c28be67ea2325]
link pcs to pc_placas_video--><path codeLine="140" d="M376.011,351.685 C329.206,377.108 276.213,405.891 233.798,428.929 " fill="none" id="pcs-pc_placas_video" style="stroke:#A80036;stroke-width:1.0;"/><line style="stroke:#A80036;stroke-width:1.0;" x1="233.5759" x2="230.3645" y1="429.0495" y2="432.868"/><line style="stroke:#A80036;stroke-width:1.0;" x1="233.5759" x2="222.7275" y1="429.0495" y2="432.868"/><line style="stroke:#A80036;stroke-width:1.0;" x1="233.5759" x2="226.546" y1="429.0495" y2="432.868"/><line style="stroke:#A80036;stroke-width:1.0;" x1="377.8398" x2="381.6583" y1="346.1403" y2="353.1702"/><line style="stroke:#A80036;stroke-width:1.0;" x1="375.2036" x2="379.0221" y1="347.5723" y2="354.6021"/><line style="stroke:#A80036;stroke-width:1.0;" x1="376.2341" x2="383.264" y1="351.5645" y2="347.746"/><!--MD5=[d56334b2512022e99aa7d7c49d56f114]
link pcs to pc_discos_rigidos--><path codeLine="141" d="M640.801,350.155 C644.73,351.479 648.635,352.763 652.5,354 C758.736,388 880.821,417.843 975.41,439.0108 " fill="none" id="pcs-pc_discos_rigidos" style="stroke:#A80036;stroke-width:1.0;"/><line style="stroke:#A80036;stroke-width:1.0;" x1="975.5128" x2="983.321" y1="439.0339" y2="432.9671"/><line style="stroke:#A80036;stroke-width:1.0;" x1="975.5128" x2="983.321" y1="439.0339" y2="448.5835"/><line style="stroke:#A80036;stroke-width:1.0;" x1="975.5128" x2="983.321" y1="439.0339" y2="440.7753"/><line style="stroke:#A80036;stroke-width:1.0;" x1="635.7106" x2="638.2961" y1="352.6431" y2="345.0724"/><line style="stroke:#A80036;stroke-width:1.0;" x1="638.5496" x2="641.1351" y1="353.6126" y2="346.0419"/><line style="stroke:#A80036;stroke-width:1.0;" x1="640.7887" x2="633.218" y1="350.1505" y2="347.565"/><!--MD5=[fbd4bce82d5b902fc04dafc2a54ce603]
link pcs to pc_memorias_ram--><path codeLine="142" d="M636.646,349.839 C641.963,351.347 647.259,352.742 652.5,354 C933.74,421.52 1014.02,374.194 1300.5,414 C1350.12,420.895 1403.86,430.211 1452.53,439.3564 " fill="none" id="pcs-pc_memorias_ram" style="stroke:#A80036;stroke-width:1.0;"/><line style="stroke:#A80036;stroke-width:1.0;" x1="1452.7492" x2="1460.61" y1="439.3961" y2="433.021"/><line style="stroke:#A80036;stroke-width:1.0;" x1="1452.7492" x2="1460.61" y1="439.3961" y2="448.7426"/><line style="stroke:#A80036;stroke-width:1.0;" x1="1452.7492" x2="1460.61" y1="439.3961" y2="440.8818"/><line style="stroke:#A80036;stroke-width:1.0;" x1="631.5584" x2="633.8071" y1="352.5171" y2="344.8396"/><line style="stroke:#A80036;stroke-width:1.0;" x1="634.4375" x2="636.6861" y1="353.3603" y2="345.6828"/><line style="stroke:#A80036;stroke-width:1.0;" x1="636.5215" x2="628.844" y1="349.8027" y2="347.554"/><!--MD5=[812f6428476802fb66f5ed581aba4549]
link placas_video to pc_placas_video--><path codeLine="144" d="M154.5,362.187 C154.5,383.164 154.5,405.509 154.5,424.527 " fill="none" id="placas_video-pc_placas_video" style="stroke:#A80036;stroke-width:1.0;"/><line style="stroke:#A80036;stroke-width:1.0;" x1="154.5" x2="162.5" y1="424.7371" y2="432.7371"/><line style="stroke:#A80036;stroke-width:1.0;" x1="154.5" x2="146.5" y1="424.7371" y2="432.7371"/><line style="stroke:#A80036;stroke-width:1.0;" x1="154.5" x2="154.5" y1="424.7371" y2="432.7371"/><line style="stroke:#A80036;stroke-width:1.0;" x1="150.5" x2="158.5" y1="358.1" y2="358.1"/><line style="stroke:#A80036;stroke-width:1.0;" x1="150.5" x2="158.5" y1="361.1" y2="361.1"/><line style="stroke:#A80036;stroke-width:1.0;" x1="154.5" x2="154.5" y1="362.1" y2="354.1"/><!--MD5=[14115497096aefb91d50c0a271ef5e3a]
link discos_rigidos to pc_discos_rigidos--><path codeLine="145" d="M1321.94,352.173 C1282.54,377.225 1238.12,405.474 1202.3,428.249 " fill="none" id="discos_rigidos-pc_discos_rigidos" style="stroke:#A80036;stroke-width:1.0;"/><line style="stroke:#A80036;stroke-width:1.0;" x1="1202.0137" x2="1199.5481" y1="428.4402" y2="432.7283"/><line style="stroke:#A80036;stroke-width:1.0;" x1="1202.0137" x2="1190.9719" y1="428.4402" y2="432.7283"/><line style="stroke:#A80036;stroke-width:1.0;" x1="1202.0137" x2="1195.26" y1="428.4402" y2="432.7283"/><line style="stroke:#A80036;stroke-width:1.0;" x1="1323.3791" x2="1327.6672" y1="346.5132" y2="353.2669"/><line style="stroke:#A80036;stroke-width:1.0;" x1="1320.8465" x2="1325.1345" y1="348.1212" y2="354.8749"/><line style="stroke:#A80036;stroke-width:1.0;" x1="1322.1463" x2="1328.9" y1="352.0341" y2="347.746"/><!--MD5=[7822da2b950a0fe556dc28aa93a6f8b1]
link memorias_ram to pc_memorias_ram--><path codeLine="146" d="M1704.7,354.33 C1686.03,378.165 1665.29,404.633 1648.21,426.42 " fill="none" id="memorias_ram-pc_memorias_ram" style="stroke:#A80036;stroke-width:1.0;"/><line style="stroke:#A80036;stroke-width:1.0;" x1="1648.2029" x2="1649.5682" y1="426.4301" y2="432.7283"/><line style="stroke:#A80036;stroke-width:1.0;" x1="1648.2029" x2="1636.9718" y1="426.4301" y2="432.7283"/><line style="stroke:#A80036;stroke-width:1.0;" x1="1648.2029" x2="1643.27" y1="426.4301" y2="432.7283"/><line style="stroke:#A80036;stroke-width:1.0;" x1="1704.2445" x2="1710.5427" y1="348.4287" y2="353.3615"/><line style="stroke:#A80036;stroke-width:1.0;" x1="1702.3947" x2="1708.6928" y1="350.7905" y2="355.7233"/><line style="stroke:#A80036;stroke-width:1.0;" x1="1704.9271" x2="1709.86" y1="354.0442" y2="347.746"/><!--MD5=[c1b009a8f7ab2a23d8ef858a2ab45e97]
link VENTAS_PC to sucursales--><path codeLine="148" d="M772.414,170.049 C771.982,187.492 771.532,205.622 771.119,222.269 " fill="none" id="VENTAS_PC-sucursales" style="stroke:#A80036;stroke-width:1.0;"/><line style="stroke:#A80036;stroke-width:1.0;" x1="775.0416" x2="767.044" y1="225.406" y2="225.2084"/><line style="stroke:#A80036;stroke-width:1.0;" x1="775.1157" x2="767.1181" y1="222.4069" y2="222.2093"/><line style="stroke:#A80036;stroke-width:1.0;" x1="771.1416" x2="770.944" y1="221.3084" y2="229.306"/><line style="stroke:#A80036;stroke-width:1.0;" x1="768.4897" x2="776.4872" y1="166.9402" y2="167.1393"/><line style="stroke:#A80036;stroke-width:1.0;" x1="768.415" x2="776.4125" y1="169.9392" y2="170.1384"/><line style="stroke:#A80036;stroke-width:1.0;" x1="772.3888" x2="772.588" y1="171.0385" y2="163.041"/><!--MD5=[cd566e7d7e81cab34354c9357d7875d9]
link VENTAS_PC to pcs--><path codeLine="149" d="M660.078,167.183 C632.831,186.515 604.175,206.847 578.334,225.181 " fill="none" id="VENTAS_PC-pcs" style="stroke:#A80036;stroke-width:1.0;"/><line style="stroke:#A80036;stroke-width:1.0;" x1="578.098" x2="573.4679" y1="230.2529" y2="223.729"/><line style="stroke:#A80036;stroke-width:1.0;" x1="580.5445" x2="575.9144" y1="228.5166" y2="221.9927"/><line style="stroke:#A80036;stroke-width:1.0;" x1="579.045" x2="572.521" y1="224.6759" y2="229.306"/><line style="stroke:#A80036;stroke-width:1.0;" x1="660.3391" x2="664.9684" y1="162.0934" y2="168.6179"/><line style="stroke:#A80036;stroke-width:1.0;" x1="657.8924" x2="662.5217" y1="163.8294" y2="170.3539"/><line style="stroke:#A80036;stroke-width:1.0;" x1="659.3915" x2="665.916" y1="167.6703" y2="163.041"/><!--MD5=[192a443884ac646cd1820a0d7c69df4a]
link VENTAS_PC to tiempos--><path codeLine="150" d="M893.689,167.137 C929.125,191.26 966.854,216.943 998.318,238.363 " fill="none" id="VENTAS_PC-tiempos" style="stroke:#A80036;stroke-width:1.0;"/><line style="stroke:#A80036;stroke-width:1.0;" x1="1003.0643" x2="998.5613" y1="236.7533" y2="243.3657"/><line style="stroke:#A80036;stroke-width:1.0;" x1="1000.5846" x2="996.0817" y1="235.0647" y2="241.6771"/><line style="stroke:#A80036;stroke-width:1.0;" x1="997.5066" x2="1004.119" y1="237.8081" y2="242.311"/><line style="stroke:#A80036;stroke-width:1.0;" x1="888.7277" x2="893.2295" y1="168.5985" y2="161.9853"/><line style="stroke:#A80036;stroke-width:1.0;" x1="891.2076" x2="895.7094" y1="170.2867" y2="163.6735"/><line style="stroke:#A80036;stroke-width:1.0;" x1="894.2851" x2="887.672" y1="167.5428" y2="163.041"/><!--MD5=[00df2a532eb9f304cddc8cb7dba6215a]
@startuml
entity tiempos <<Dimension>>{
**<PK> CODIGO_TIEMPO int IDENTITY PRIMARY KEY**
- -
AÑO int
MES int
}

entity sucursales <<Dimension>>{
**<PK> CODIGO_SUCURSAL int**
- -
DIR nvarchar(255)
MAIL nvarchar(255)
TELEFONO decimal(18,0)
CIUDAD nvarchar(255)
}

entity pcs <<Dimension>>{
**<PK>  PC_CODIGO nvarchar(50)**
- -
ALTO decimal (18,2)
ANCHO decimal (18,2)
PROFUNDIDAD decimal (18,2)
<FK> MICROPROCESADOR_CODIGO nvarchar(50)
}

entity discos_rigidos <<Dimension>>{
**<PK> DISCO_RIGIDO_CODIGO nvarchar(255)**
- -
TIPO nvarchar(255)
CAPACIDAD nvarchar(255)
VELOCIDAD nvarchar(255)
FABRICANTE nvarchar(255)
}

entity procesadores <<Dimension>>{
**<PK> MICROPROCESADOR_CODIGO nvarchar(50)**
- -
CANTIDAD_HILOS decimal(18,0)
CACHE nvarchar(50)
VELOCIDAD nvarchar(50)
FABRICANTE nvarchar(255)
}

entity memorias_ram <<Dimension>>{
**<PK>  MEMORIA_RAM_CODIGO nvarchar(255)**
- -
TIPO nvarchar(255)
VELOCIDAD nvarchar(255)
CAPACIDAD nvarchar(255)
FABRICANTE nvarchar(255)
}

entity placas_video <<Dimension>>{
**<PK> PLACA_VIDEO_CODIGO  decimal(18,0)**
- -
MODELO_PLACA_VIDEO  nvarchar(50)
CHIPSET nvarchar(50)
CAPACIDAD nvarchar(255)
VELOCIDAD nvarchar(50)
FABRICANTE nvarchar(255)
}

entity accesorios <<Dimension>>{
**<PK>  CODIGO_ACCESORIO decimal(18,0)**
- -
DESCRIPCION nvarchar(255)
}

entity pc_placas_video <<Bridge>>{
**<PK> PLACA_VIDEO_CODIGO  decimal(18,0)**
**<PK><FK> PC_CODIGO nvarchar(50)**
}

entity pc_discos_rigidos <<Bridge>>{
**<PK> DISCO_RIGIDO_CODIGO  nvarchar(255)**
**<PK><FK> PC_CODIGO nvarchar(50)**
}

entity pc_memorias_ram <<Bridge>>{
**<PK> MEMORIA_RAM_CODIGO  nvarchar(255)**
**<PK><FK> PC_CODIGO nvarchar(50)**
}

entity COMPRAS_ACCESORIO <<Facts>>{
**<PK><FK> CODIGO_ACCESORIO decimal(18,0)**
**<PK><FK> CODIGO_SUCURSAL int**
**<PK><FK> CODIGO_TIEMPO int**
- -
CANTIDAD decimal(18,0)
PROMEDIO_PRECIO_COMPRA decimal(18,2)
}

entity COMPRAS_PC <<Facts>>{
**<PK><FK> PC_CODIGO nvarchar(50)**
**<PK><FK> CODIGO_SUCURSAL int**
**<PK><FK> CODIGO_TIEMPO int**
- -
CANTIDAD decimal(18,0)
PROMEDIO_PRECIO_COMPRA decimal(18,2)
}

entity VENTAS_ACCESORIO <<Facts>>{
**<PK><FK> CODIGO_ACCESORIO decimal(18,0)**
**<PK><FK> CODIGO_SUCURSAL int**
**<PK><FK> CODIGO_TIEMPO int**
- -
CANTIDAD decimal(18,0)
PROMEDIO_PRECIO_VENTA decimal(18,2)
PROMEDIO_DIAS_EN_STOCK decimal(18,2)
RANGO_EDAD_CLIENTES varchar(10)
SEXO_MAYORITARIO_CLIENTES varchar(20)
}

entity VENTAS_PC <<Facts>>{
**<PK><FK> PC_CODIGO nvarchar(50)**
**<PK><FK> CODIGO_SUCURSAL int**
**<PK><FK> CODIGO_TIEMPO int**
- -
CANTIDAD decimal(18,0)
PROMEDIO_PRECIO_VENTA decimal(18,2)
PROMEDIO_DIAS_EN_STOCK decimal(18,2)
RANGO_EDAD_CLIENTES varchar(10)
SEXO_MAYORITARIO_CLIENTES varchar(20)
}

COMPRAS_ACCESORIO ||- -|| sucursales
COMPRAS_ACCESORIO ||- -|| accesorios
COMPRAS_ACCESORIO ||- -|| tiempos

VENTAS_ACCESORIO ||- -|| sucursales
VENTAS_ACCESORIO ||- -|| accesorios
VENTAS_ACCESORIO ||- -|| tiempos


COMPRAS_PC ||- -|| sucursales
COMPRAS_PC ||- -|| pcs
COMPRAS_PC ||- -|| tiempos

pcs ||- -|| procesadores
pcs ||- -{ pc_placas_video
pcs ||- -{ pc_discos_rigidos
pcs ||- -{ pc_memorias_ram

placas_video ||- -{ pc_placas_video
discos_rigidos ||- -{ pc_discos_rigidos
memorias_ram ||- -{ pc_memorias_ram

VENTAS_PC ||- -|| sucursales
VENTAS_PC ||- -|| pcs
VENTAS_PC ||- -|| tiempos
@enduml

PlantUML version 1.2021.9beta2(Unknown compile time)
(GPL source distribution)
Java Runtime: Java(TM) SE Runtime Environment
JVM: Java HotSpot(TM) 64-Bit Server VM
Default Encoding: UTF-8
Language: en
Country: US
--></g></svg>