<?xml version="1.0" encoding="UTF-8" standalone="no"?><svg xmlns="http://www.w3.org/2000/svg" xmlns:xlink="http://www.w3.org/1999/xlink" contentScriptType="application/ecmascript" contentStyleType="text/css" height="909px" preserveAspectRatio="none" style="width:1733px;height:909px;background:#FFFFFF;" version="1.1" viewBox="0 0 1733 909" width="1733px" zoomAndPan="magnify"><defs><filter height="300%" id="f1rl2y8rux708p" width="300%" x="-1" y="-1"><feGaussianBlur result="blurOut" stdDeviation="2.0"/><feColorMatrix in="blurOut" result="blurOut2" type="matrix" values="0 0 0 0 0 0 0 0 0 0 0 0 0 0 0 0 0 0 .4 0"/><feOffset dx="4.0" dy="4.0" in="blurOut2" result="blurOut3"/><feBlend in="SourceGraphic" in2="blurOut3" mode="normal"/></filter></defs><g><!--MD5=[fb8b7647a8420a6dd1c7bf69f78f5a46]
class PCS_DISCOS_RIGIDOS--><rect codeLine="1" fill="#FEFECE" filter="url(#f1rl2y8rux708p)" height="73.6094" id="PCS_DISCOS_RIGIDOS" style="stroke:#A80036;stroke-width:1.5;" width="329" x="7" y="618"/><ellipse cx="102.75" cy="634" fill="#ADD1B2" rx="11" ry="11" style="stroke:#A80036;stroke-width:1.0;"/><path d="M101.5469,634.875 L103,634.875 L103,634.9844 C103,635.3906 103.0313,635.5469 103.1094,635.7031 C103.2656,635.9531 103.5469,636.1094 103.8438,636.1094 C104.0938,636.1094 104.3594,635.9688 104.5156,635.75 C104.6406,635.5938 104.6719,635.4375 104.6719,634.9844 L104.6719,633.0625 C104.6719,632.9063 104.6719,632.8594 104.6563,632.7031 C104.5938,632.2344 104.2813,631.9219 103.8281,631.9219 C103.5781,631.9219 103.3125,632.0625 103.1406,632.2813 C103.0313,632.4531 103,632.6094 103,633.0625 L103,633.1875 L101.5469,633.1875 L101.5469,630.7813 L105.5313,630.7813 L105.5313,631.6406 C105.5313,632.0469 105.5625,632.2188 105.6406,632.375 C105.8125,632.625 106.0938,632.7813 106.375,632.7813 C106.6406,632.7813 106.9063,632.6406 107.0781,632.4219 C107.1875,632.25 107.2188,632.1094 107.2188,631.6406 L107.2188,629.0938 L99.5938,629.0938 C99.1563,629.0938 99.0313,629.1094 98.875,629.2031 C98.625,629.3594 98.4688,629.6563 98.4688,629.9375 C98.4688,630.2188 98.6094,630.4688 98.8281,630.6406 C98.9844,630.75 99.1719,630.7813 99.5938,630.7813 L99.8438,630.7813 L99.8438,637.2969 L99.5938,637.2969 C99.1875,637.2969 99.0313,637.3125 98.875,637.4219 C98.625,637.5938 98.4688,637.8594 98.4688,638.1563 C98.4688,638.4219 98.6094,638.6719 98.8281,638.8281 C98.9688,638.9531 99.2031,639 99.5938,639 L107.5938,639 L107.5938,636.4219 C107.5938,635.9844 107.5625,635.8438 107.4844,635.6875 C107.3125,635.4375 107.0313,635.2813 106.75,635.2813 C106.4844,635.2813 106.2188,635.3906 106.0469,635.6406 C105.9375,635.7969 105.9063,635.9375 105.9063,636.4219 L105.9063,637.2969 L101.5469,637.2969 L101.5469,634.875 Z " fill="#000000"/><text fill="#000000" font-family="sans-serif" font-size="12" lengthAdjust="spacing" textLength="129" x="123.25" y="638.1543">PCS_DISCOS_RIGIDOS</text><line style="stroke:#A80036;stroke-width:1.5;" x1="8" x2="335" y1="650" y2="650"/><text fill="#000000" font-family="sans-serif" font-size="11" font-weight="bold" lengthAdjust="spacing" textLength="237" x="13" y="664.2104">&lt;PK&gt;&lt;FK&gt; PC_CODIGO nvarchar(50)</text><text fill="#000000" font-family="sans-serif" font-size="11" font-weight="bold" lengthAdjust="spacing" textLength="317" x="13" y="677.0151">&lt;PK&gt;&lt;FK&gt; DISCO_RIGIDO_CODIGO nvarchar(255)</text><line style="stroke:#A80036;stroke-width:1.0;" x1="8" x2="335" y1="683.6094" y2="683.6094"/><!--MD5=[a9c0392517ee39a8ae2064f46d988675]
class PCS_MEMORIAS_RAM--><rect codeLine="7" fill="#FEFECE" filter="url(#f1rl2y8rux708p)" height="73.6094" id="PCS_MEMORIAS_RAM" style="stroke:#A80036;stroke-width:1.5;" width="332" x="371.5" y="618"/><ellipse cx="472.25" cy="634" fill="#ADD1B2" rx="11" ry="11" style="stroke:#A80036;stroke-width:1.0;"/><path d="M471.0469,634.875 L472.5,634.875 L472.5,634.9844 C472.5,635.3906 472.5313,635.5469 472.6094,635.7031 C472.7656,635.9531 473.0469,636.1094 473.3438,636.1094 C473.5938,636.1094 473.8594,635.9688 474.0156,635.75 C474.1406,635.5938 474.1719,635.4375 474.1719,634.9844 L474.1719,633.0625 C474.1719,632.9063 474.1719,632.8594 474.1563,632.7031 C474.0938,632.2344 473.7813,631.9219 473.3281,631.9219 C473.0781,631.9219 472.8125,632.0625 472.6406,632.2813 C472.5313,632.4531 472.5,632.6094 472.5,633.0625 L472.5,633.1875 L471.0469,633.1875 L471.0469,630.7813 L475.0313,630.7813 L475.0313,631.6406 C475.0313,632.0469 475.0625,632.2188 475.1406,632.375 C475.3125,632.625 475.5938,632.7813 475.875,632.7813 C476.1406,632.7813 476.4063,632.6406 476.5781,632.4219 C476.6875,632.25 476.7188,632.1094 476.7188,631.6406 L476.7188,629.0938 L469.0938,629.0938 C468.6563,629.0938 468.5313,629.1094 468.375,629.2031 C468.125,629.3594 467.9688,629.6563 467.9688,629.9375 C467.9688,630.2188 468.1094,630.4688 468.3281,630.6406 C468.4844,630.75 468.6719,630.7813 469.0938,630.7813 L469.3438,630.7813 L469.3438,637.2969 L469.0938,637.2969 C468.6875,637.2969 468.5313,637.3125 468.375,637.4219 C468.125,637.5938 467.9688,637.8594 467.9688,638.1563 C467.9688,638.4219 468.1094,638.6719 468.3281,638.8281 C468.4688,638.9531 468.7031,639 469.0938,639 L477.0938,639 L477.0938,636.4219 C477.0938,635.9844 477.0625,635.8438 476.9844,635.6875 C476.8125,635.4375 476.5313,635.2813 476.25,635.2813 C475.9844,635.2813 475.7188,635.3906 475.5469,635.6406 C475.4375,635.7969 475.4063,635.9375 475.4063,636.4219 L475.4063,637.2969 L471.0469,637.2969 L471.0469,634.875 Z " fill="#000000"/><text fill="#000000" font-family="sans-serif" font-size="12" lengthAdjust="spacing" textLength="122" x="492.75" y="638.1543">PCS_MEMORIAS_RAM</text><line style="stroke:#A80036;stroke-width:1.5;" x1="372.5" x2="702.5" y1="650" y2="650"/><text fill="#000000" font-family="sans-serif" font-size="11" font-weight="bold" lengthAdjust="spacing" textLength="237" x="377.5" y="664.2104">&lt;PK&gt;&lt;FK&gt; PC_CODIGO nvarchar(50)</text><text fill="#000000" font-family="sans-serif" font-size="11" font-weight="bold" lengthAdjust="spacing" textLength="320" x="377.5" y="677.0151">&lt;PK&gt;&lt;FK&gt; MEMORIA_RAM_CODIGO nvarchar(255)</text><line style="stroke:#A80036;stroke-width:1.0;" x1="372.5" x2="702.5" y1="683.6094" y2="683.6094"/><!--MD5=[21101324ca0df816deb68c8a7a9df87a]
class PCS_PLACAS_VIDEO--><rect codeLine="13" fill="#FEFECE" filter="url(#f1rl2y8rux708p)" height="73.6094" id="PCS_PLACAS_VIDEO" style="stroke:#A80036;stroke-width:1.5;" width="324" x="738.5" y="618"/><ellipse cx="838.75" cy="634" fill="#ADD1B2" rx="11" ry="11" style="stroke:#A80036;stroke-width:1.0;"/><path d="M837.5469,634.875 L839,634.875 L839,634.9844 C839,635.3906 839.0313,635.5469 839.1094,635.7031 C839.2656,635.9531 839.5469,636.1094 839.8438,636.1094 C840.0938,636.1094 840.3594,635.9688 840.5156,635.75 C840.6406,635.5938 840.6719,635.4375 840.6719,634.9844 L840.6719,633.0625 C840.6719,632.9063 840.6719,632.8594 840.6563,632.7031 C840.5938,632.2344 840.2813,631.9219 839.8281,631.9219 C839.5781,631.9219 839.3125,632.0625 839.1406,632.2813 C839.0313,632.4531 839,632.6094 839,633.0625 L839,633.1875 L837.5469,633.1875 L837.5469,630.7813 L841.5313,630.7813 L841.5313,631.6406 C841.5313,632.0469 841.5625,632.2188 841.6406,632.375 C841.8125,632.625 842.0938,632.7813 842.375,632.7813 C842.6406,632.7813 842.9063,632.6406 843.0781,632.4219 C843.1875,632.25 843.2188,632.1094 843.2188,631.6406 L843.2188,629.0938 L835.5938,629.0938 C835.1563,629.0938 835.0313,629.1094 834.875,629.2031 C834.625,629.3594 834.4688,629.6563 834.4688,629.9375 C834.4688,630.2188 834.6094,630.4688 834.8281,630.6406 C834.9844,630.75 835.1719,630.7813 835.5938,630.7813 L835.8438,630.7813 L835.8438,637.2969 L835.5938,637.2969 C835.1875,637.2969 835.0313,637.3125 834.875,637.4219 C834.625,637.5938 834.4688,637.8594 834.4688,638.1563 C834.4688,638.4219 834.6094,638.6719 834.8281,638.8281 C834.9688,638.9531 835.2031,639 835.5938,639 L843.5938,639 L843.5938,636.4219 C843.5938,635.9844 843.5625,635.8438 843.4844,635.6875 C843.3125,635.4375 843.0313,635.2813 842.75,635.2813 C842.4844,635.2813 842.2188,635.3906 842.0469,635.6406 C841.9375,635.7969 841.9063,635.9375 841.9063,636.4219 L841.9063,637.2969 L837.5469,637.2969 L837.5469,634.875 Z " fill="#000000"/><text fill="#000000" font-family="sans-serif" font-size="12" lengthAdjust="spacing" textLength="115" x="859.25" y="638.1543">PCS_PLACAS_VIDEO</text><line style="stroke:#A80036;stroke-width:1.5;" x1="739.5" x2="1061.5" y1="650" y2="650"/><text fill="#000000" font-family="sans-serif" font-size="11" font-weight="bold" lengthAdjust="spacing" textLength="237" x="744.5" y="664.2104">&lt;PK&gt;&lt;FK&gt; PC_CODIGO nvarchar(50)</text><text fill="#000000" font-family="sans-serif" font-size="11" font-weight="bold" lengthAdjust="spacing" textLength="312" x="744.5" y="677.0151">&lt;PK&gt;&lt;FK&gt; PLACA_VIDEO_CODIGO decimal(18,0)</text><line style="stroke:#A80036;stroke-width:1.0;" x1="739.5" x2="1061.5" y1="683.6094" y2="683.6094"/><!--MD5=[3ab6a1b6d34d74b06d4e492601a80325]
class COMPRAS_ACCESORIO--><rect codeLine="18" fill="#FEFECE" filter="url(#f1rl2y8rux708p)" height="137.6328" id="COMPRAS_ACCESORIO" style="stroke:#A80036;stroke-width:1.5;" width="339" x="714" y="223"/><ellipse cx="813.25" cy="239" fill="#ADD1B2" rx="11" ry="11" style="stroke:#A80036;stroke-width:1.0;"/><path d="M812.0469,239.875 L813.5,239.875 L813.5,239.9844 C813.5,240.3906 813.5313,240.5469 813.6094,240.7031 C813.7656,240.9531 814.0469,241.1094 814.3438,241.1094 C814.5938,241.1094 814.8594,240.9688 815.0156,240.75 C815.1406,240.5938 815.1719,240.4375 815.1719,239.9844 L815.1719,238.0625 C815.1719,237.9063 815.1719,237.8594 815.1563,237.7031 C815.0938,237.2344 814.7813,236.9219 814.3281,236.9219 C814.0781,236.9219 813.8125,237.0625 813.6406,237.2813 C813.5313,237.4531 813.5,237.6094 813.5,238.0625 L813.5,238.1875 L812.0469,238.1875 L812.0469,235.7813 L816.0313,235.7813 L816.0313,236.6406 C816.0313,237.0469 816.0625,237.2188 816.1406,237.375 C816.3125,237.625 816.5938,237.7813 816.875,237.7813 C817.1406,237.7813 817.4063,237.6406 817.5781,237.4219 C817.6875,237.25 817.7188,237.1094 817.7188,236.6406 L817.7188,234.0938 L810.0938,234.0938 C809.6563,234.0938 809.5313,234.1094 809.375,234.2031 C809.125,234.3594 808.9688,234.6563 808.9688,234.9375 C808.9688,235.2188 809.1094,235.4688 809.3281,235.6406 C809.4844,235.75 809.6719,235.7813 810.0938,235.7813 L810.3438,235.7813 L810.3438,242.2969 L810.0938,242.2969 C809.6875,242.2969 809.5313,242.3125 809.375,242.4219 C809.125,242.5938 808.9688,242.8594 808.9688,243.1563 C808.9688,243.4219 809.1094,243.6719 809.3281,243.8281 C809.4688,243.9531 809.7031,244 810.0938,244 L818.0938,244 L818.0938,241.4219 C818.0938,240.9844 818.0625,240.8438 817.9844,240.6875 C817.8125,240.4375 817.5313,240.2813 817.25,240.2813 C816.9844,240.2813 816.7188,240.3906 816.5469,240.6406 C816.4375,240.7969 816.4063,240.9375 816.4063,241.4219 L816.4063,242.2969 L812.0469,242.2969 L812.0469,239.875 Z " fill="#000000"/><text fill="#000000" font-family="sans-serif" font-size="12" lengthAdjust="spacing" textLength="132" x="833.75" y="243.1543">COMPRAS_ACCESORIO</text><line style="stroke:#A80036;stroke-width:1.5;" x1="715" x2="1052" y1="255" y2="255"/><text fill="#000000" font-family="sans-serif" font-size="11" font-weight="bold" lengthAdjust="spacing" textLength="327" x="720" y="269.2104">&lt;PK&gt; CODIGO_COMPRA_ACCESORIO decimal(18,0)</text><line style="stroke:#A80036;stroke-width:1.0;" x1="715" x2="1052" y1="275.8047" y2="275.8047"/><text fill="#000000" font-family="sans-serif" font-size="11" lengthAdjust="spacing" textLength="236" x="720" y="290.0151">&lt;FK&gt; CODIGO_ACCESORIO decimal(18,0)</text><text fill="#000000" font-family="sans-serif" font-size="11" lengthAdjust="spacing" textLength="133" x="720" y="302.8198">NUMERO decimal (18,0)</text><text fill="#000000" font-family="sans-serif" font-size="11" lengthAdjust="spacing" textLength="115" x="720" y="315.6245">FECHA datetime2(3)</text><text fill="#000000" font-family="sans-serif" font-size="11" lengthAdjust="spacing" textLength="141" x="720" y="328.4292">CANTIDAD decimal(18,0)</text><text fill="#000000" font-family="sans-serif" font-size="11" lengthAdjust="spacing" textLength="121" x="720" y="341.2339">PRECIO decimal(18,2)</text><text fill="#000000" font-family="sans-serif" font-size="11" lengthAdjust="spacing" textLength="167" x="720" y="354.0386">&lt;FK&gt; CODIGO_SUCURSAL int</text><!--MD5=[c1762506a17bdc229bcdb35fc9eb8697]
class DISCOS_RIGIDOS--><rect codeLine="28" fill="#FEFECE" filter="url(#f1rl2y8rux708p)" height="112.0234" id="DISCOS_RIGIDOS" style="stroke:#A80036;stroke-width:1.5;" width="296" x="23.5" y="777.5"/><ellipse cx="116.75" cy="793.5" fill="#ADD1B2" rx="11" ry="11" style="stroke:#A80036;stroke-width:1.0;"/><path d="M115.5469,794.375 L117,794.375 L117,794.4844 C117,794.8906 117.0313,795.0469 117.1094,795.2031 C117.2656,795.4531 117.5469,795.6094 117.8438,795.6094 C118.0938,795.6094 118.3594,795.4688 118.5156,795.25 C118.6406,795.0938 118.6719,794.9375 118.6719,794.4844 L118.6719,792.5625 C118.6719,792.4063 118.6719,792.3594 118.6563,792.2031 C118.5938,791.7344 118.2813,791.4219 117.8281,791.4219 C117.5781,791.4219 117.3125,791.5625 117.1406,791.7813 C117.0313,791.9531 117,792.1094 117,792.5625 L117,792.6875 L115.5469,792.6875 L115.5469,790.2813 L119.5313,790.2813 L119.5313,791.1406 C119.5313,791.5469 119.5625,791.7188 119.6406,791.875 C119.8125,792.125 120.0938,792.2813 120.375,792.2813 C120.6406,792.2813 120.9063,792.1406 121.0781,791.9219 C121.1875,791.75 121.2188,791.6094 121.2188,791.1406 L121.2188,788.5938 L113.5938,788.5938 C113.1563,788.5938 113.0313,788.6094 112.875,788.7031 C112.625,788.8594 112.4688,789.1563 112.4688,789.4375 C112.4688,789.7188 112.6094,789.9688 112.8281,790.1406 C112.9844,790.25 113.1719,790.2813 113.5938,790.2813 L113.8438,790.2813 L113.8438,796.7969 L113.5938,796.7969 C113.1875,796.7969 113.0313,796.8125 112.875,796.9219 C112.625,797.0938 112.4688,797.3594 112.4688,797.6563 C112.4688,797.9219 112.6094,798.1719 112.8281,798.3281 C112.9688,798.4531 113.2031,798.5 113.5938,798.5 L121.5938,798.5 L121.5938,795.9219 C121.5938,795.4844 121.5625,795.3438 121.4844,795.1875 C121.3125,794.9375 121.0313,794.7813 120.75,794.7813 C120.4844,794.7813 120.2188,794.8906 120.0469,795.1406 C119.9375,795.2969 119.9063,795.4375 119.9063,795.9219 L119.9063,796.7969 L115.5469,796.7969 L115.5469,794.375 Z " fill="#000000"/><text fill="#000000" font-family="sans-serif" font-size="12" lengthAdjust="spacing" textLength="101" x="137.25" y="797.6543">DISCOS_RIGIDOS</text><line style="stroke:#A80036;stroke-width:1.5;" x1="24.5" x2="318.5" y1="809.5" y2="809.5"/><text fill="#000000" font-family="sans-serif" font-size="11" font-weight="bold" lengthAdjust="spacing" textLength="284" x="29.5" y="823.7104">&lt;PK&gt; DISCO_RIGIDO_CODIGO nvarchar(255)</text><line style="stroke:#A80036;stroke-width:1.0;" x1="24.5" x2="318.5" y1="830.3047" y2="830.3047"/><text fill="#000000" font-family="sans-serif" font-size="11" lengthAdjust="spacing" textLength="107" x="29.5" y="844.5151">TIPO nvarchar(255)</text><text fill="#000000" font-family="sans-serif" font-size="11" lengthAdjust="spacing" textLength="149" x="29.5" y="857.3198">CAPACIDAD nvarchar(255)</text><text fill="#000000" font-family="sans-serif" font-size="11" lengthAdjust="spacing" textLength="149" x="29.5" y="870.1245">VELOCIDAD nvarchar(255)</text><text fill="#000000" font-family="sans-serif" font-size="11" lengthAdjust="spacing" textLength="152" x="29.5" y="882.9292">FABRICANTE nvarchar(255)</text><!--MD5=[752f182f00763715e311ec64e07fceca]
class PLACAS_VIDEO--><rect codeLine="37" fill="#FEFECE" filter="url(#f1rl2y8rux708p)" height="124.8281" id="PLACAS_VIDEO" style="stroke:#A80036;stroke-width:1.5;" width="295" x="753" y="771"/><ellipse cx="852.75" cy="787" fill="#ADD1B2" rx="11" ry="11" style="stroke:#A80036;stroke-width:1.0;"/><path d="M851.5469,787.875 L853,787.875 L853,787.9844 C853,788.3906 853.0313,788.5469 853.1094,788.7031 C853.2656,788.9531 853.5469,789.1094 853.8438,789.1094 C854.0938,789.1094 854.3594,788.9688 854.5156,788.75 C854.6406,788.5938 854.6719,788.4375 854.6719,787.9844 L854.6719,786.0625 C854.6719,785.9063 854.6719,785.8594 854.6563,785.7031 C854.5938,785.2344 854.2813,784.9219 853.8281,784.9219 C853.5781,784.9219 853.3125,785.0625 853.1406,785.2813 C853.0313,785.4531 853,785.6094 853,786.0625 L853,786.1875 L851.5469,786.1875 L851.5469,783.7813 L855.5313,783.7813 L855.5313,784.6406 C855.5313,785.0469 855.5625,785.2188 855.6406,785.375 C855.8125,785.625 856.0938,785.7813 856.375,785.7813 C856.6406,785.7813 856.9063,785.6406 857.0781,785.4219 C857.1875,785.25 857.2188,785.1094 857.2188,784.6406 L857.2188,782.0938 L849.5938,782.0938 C849.1563,782.0938 849.0313,782.1094 848.875,782.2031 C848.625,782.3594 848.4688,782.6563 848.4688,782.9375 C848.4688,783.2188 848.6094,783.4688 848.8281,783.6406 C848.9844,783.75 849.1719,783.7813 849.5938,783.7813 L849.8438,783.7813 L849.8438,790.2969 L849.5938,790.2969 C849.1875,790.2969 849.0313,790.3125 848.875,790.4219 C848.625,790.5938 848.4688,790.8594 848.4688,791.1563 C848.4688,791.4219 848.6094,791.6719 848.8281,791.8281 C848.9688,791.9531 849.2031,792 849.5938,792 L857.5938,792 L857.5938,789.4219 C857.5938,788.9844 857.5625,788.8438 857.4844,788.6875 C857.3125,788.4375 857.0313,788.2813 856.75,788.2813 C856.4844,788.2813 856.2188,788.3906 856.0469,788.6406 C855.9375,788.7969 855.9063,788.9375 855.9063,789.4219 L855.9063,790.2969 L851.5469,790.2969 L851.5469,787.875 Z " fill="#000000"/><text fill="#000000" font-family="sans-serif" font-size="12" lengthAdjust="spacing" textLength="87" x="873.25" y="791.1543">PLACAS_VIDEO</text><line style="stroke:#A80036;stroke-width:1.5;" x1="754" x2="1047" y1="803" y2="803"/><text fill="#000000" font-family="sans-serif" font-size="11" font-weight="bold" lengthAdjust="spacing" textLength="283" x="759" y="817.2104">&lt;PK&gt; PLACA_VIDEO_CODIGO  decimal(18,0)</text><line style="stroke:#A80036;stroke-width:1.0;" x1="754" x2="1047" y1="823.8047" y2="823.8047"/><text fill="#000000" font-family="sans-serif" font-size="11" lengthAdjust="spacing" textLength="212" x="759" y="838.0151">MODELO_PLACA_VIDEO  nvarchar(50)</text><text fill="#000000" font-family="sans-serif" font-size="11" lengthAdjust="spacing" textLength="122" x="759" y="850.8198">CHIPSET nvarchar(50)</text><text fill="#000000" font-family="sans-serif" font-size="11" lengthAdjust="spacing" textLength="149" x="759" y="863.6245">CAPACIDAD nvarchar(255)</text><text fill="#000000" font-family="sans-serif" font-size="11" lengthAdjust="spacing" textLength="142" x="759" y="876.4292">VELOCIDAD nvarchar(50)</text><text fill="#000000" font-family="sans-serif" font-size="11" lengthAdjust="spacing" textLength="152" x="759" y="889.2339">FABRICANTE nvarchar(255)</text><!--MD5=[8d889eb65731bb6f715ab904c4183fec]
class SUCURSALES--><rect codeLine="46" fill="#FEFECE" filter="url(#f1rl2y8rux708p)" height="112.0234" id="SUCURSALES" style="stroke:#A80036;stroke-width:1.5;" width="199" x="906" y="26"/><ellipse cx="962.25" cy="42" fill="#ADD1B2" rx="11" ry="11" style="stroke:#A80036;stroke-width:1.0;"/><path d="M961.0469,42.875 L962.5,42.875 L962.5,42.9844 C962.5,43.3906 962.5313,43.5469 962.6094,43.7031 C962.7656,43.9531 963.0469,44.1094 963.3438,44.1094 C963.5938,44.1094 963.8594,43.9688 964.0156,43.75 C964.1406,43.5938 964.1719,43.4375 964.1719,42.9844 L964.1719,41.0625 C964.1719,40.9063 964.1719,40.8594 964.1563,40.7031 C964.0938,40.2344 963.7813,39.9219 963.3281,39.9219 C963.0781,39.9219 962.8125,40.0625 962.6406,40.2813 C962.5313,40.4531 962.5,40.6094 962.5,41.0625 L962.5,41.1875 L961.0469,41.1875 L961.0469,38.7813 L965.0313,38.7813 L965.0313,39.6406 C965.0313,40.0469 965.0625,40.2188 965.1406,40.375 C965.3125,40.625 965.5938,40.7813 965.875,40.7813 C966.1406,40.7813 966.4063,40.6406 966.5781,40.4219 C966.6875,40.25 966.7188,40.1094 966.7188,39.6406 L966.7188,37.0938 L959.0938,37.0938 C958.6563,37.0938 958.5313,37.1094 958.375,37.2031 C958.125,37.3594 957.9688,37.6563 957.9688,37.9375 C957.9688,38.2188 958.1094,38.4688 958.3281,38.6406 C958.4844,38.75 958.6719,38.7813 959.0938,38.7813 L959.3438,38.7813 L959.3438,45.2969 L959.0938,45.2969 C958.6875,45.2969 958.5313,45.3125 958.375,45.4219 C958.125,45.5938 957.9688,45.8594 957.9688,46.1563 C957.9688,46.4219 958.1094,46.6719 958.3281,46.8281 C958.4688,46.9531 958.7031,47 959.0938,47 L967.0938,47 L967.0938,44.4219 C967.0938,43.9844 967.0625,43.8438 966.9844,43.6875 C966.8125,43.4375 966.5313,43.2813 966.25,43.2813 C965.9844,43.2813 965.7188,43.3906 965.5469,43.6406 C965.4375,43.7969 965.4063,43.9375 965.4063,44.4219 L965.4063,45.2969 L961.0469,45.2969 L961.0469,42.875 Z " fill="#000000"/><text fill="#000000" font-family="sans-serif" font-size="12" lengthAdjust="spacing" textLength="78" x="982.75" y="46.1543">SUCURSALES</text><line style="stroke:#A80036;stroke-width:1.5;" x1="907" x2="1104" y1="58" y2="58"/><text fill="#000000" font-family="sans-serif" font-size="11" font-weight="bold" lengthAdjust="spacing" textLength="187" x="912" y="72.2104">&lt;PK&gt; CODIGO_SUCURSAL int</text><line style="stroke:#A80036;stroke-width:1.0;" x1="907" x2="1104" y1="78.8047" y2="78.8047"/><text fill="#000000" font-family="sans-serif" font-size="11" lengthAdjust="spacing" textLength="144" x="912" y="93.0151">DIRECCION nvarchar(255)</text><text fill="#000000" font-family="sans-serif" font-size="11" lengthAdjust="spacing" textLength="108" x="912" y="105.8198">MAIL nvarchar(255)</text><text fill="#000000" font-family="sans-serif" font-size="11" lengthAdjust="spacing" textLength="140" x="912" y="118.6245">TELEFONO decimal(18,0)</text><text fill="#000000" font-family="sans-serif" font-size="11" lengthAdjust="spacing" textLength="127" x="912" y="131.4292">CIUDAD nvarchar(255)</text><!--MD5=[d0041e77eeda26f4d7278cb7d515fba5]
class CLIENTES--><rect codeLine="55" fill="#FEFECE" filter="url(#f1rl2y8rux708p)" height="150.4375" id="CLIENTES" style="stroke:#A80036;stroke-width:1.5;" width="255" x="1262" y="7"/><ellipse cx="1358.25" cy="23" fill="#ADD1B2" rx="11" ry="11" style="stroke:#A80036;stroke-width:1.0;"/><path d="M1357.0469,23.875 L1358.5,23.875 L1358.5,23.9844 C1358.5,24.3906 1358.5313,24.5469 1358.6094,24.7031 C1358.7656,24.9531 1359.0469,25.1094 1359.3438,25.1094 C1359.5938,25.1094 1359.8594,24.9688 1360.0156,24.75 C1360.1406,24.5938 1360.1719,24.4375 1360.1719,23.9844 L1360.1719,22.0625 C1360.1719,21.9063 1360.1719,21.8594 1360.1563,21.7031 C1360.0938,21.2344 1359.7813,20.9219 1359.3281,20.9219 C1359.0781,20.9219 1358.8125,21.0625 1358.6406,21.2813 C1358.5313,21.4531 1358.5,21.6094 1358.5,22.0625 L1358.5,22.1875 L1357.0469,22.1875 L1357.0469,19.7813 L1361.0313,19.7813 L1361.0313,20.6406 C1361.0313,21.0469 1361.0625,21.2188 1361.1406,21.375 C1361.3125,21.625 1361.5938,21.7813 1361.875,21.7813 C1362.1406,21.7813 1362.4063,21.6406 1362.5781,21.4219 C1362.6875,21.25 1362.7188,21.1094 1362.7188,20.6406 L1362.7188,18.0938 L1355.0938,18.0938 C1354.6563,18.0938 1354.5313,18.1094 1354.375,18.2031 C1354.125,18.3594 1353.9688,18.6563 1353.9688,18.9375 C1353.9688,19.2188 1354.1094,19.4688 1354.3281,19.6406 C1354.4844,19.75 1354.6719,19.7813 1355.0938,19.7813 L1355.3438,19.7813 L1355.3438,26.2969 L1355.0938,26.2969 C1354.6875,26.2969 1354.5313,26.3125 1354.375,26.4219 C1354.125,26.5938 1353.9688,26.8594 1353.9688,27.1563 C1353.9688,27.4219 1354.1094,27.6719 1354.3281,27.8281 C1354.4688,27.9531 1354.7031,28 1355.0938,28 L1363.0938,28 L1363.0938,25.4219 C1363.0938,24.9844 1363.0625,24.8438 1362.9844,24.6875 C1362.8125,24.4375 1362.5313,24.2813 1362.25,24.2813 C1361.9844,24.2813 1361.7188,24.3906 1361.5469,24.6406 C1361.4375,24.7969 1361.4063,24.9375 1361.4063,25.4219 L1361.4063,26.2969 L1357.0469,26.2969 L1357.0469,23.875 Z " fill="#000000"/><text fill="#000000" font-family="sans-serif" font-size="12" lengthAdjust="spacing" textLength="54" x="1378.75" y="27.1543">CLIENTES</text><line style="stroke:#A80036;stroke-width:1.5;" x1="1263" x2="1516" y1="39" y2="39"/><text fill="#000000" font-family="sans-serif" font-size="11" font-weight="bold" lengthAdjust="spacing" textLength="243" x="1268" y="53.2104">&lt;PK&gt; CODIGO_CLIENTE decimal(18,0)</text><line style="stroke:#A80036;stroke-width:1.0;" x1="1263" x2="1516" y1="59.8047" y2="59.8047"/><text fill="#000000" font-family="sans-serif" font-size="11" lengthAdjust="spacing" textLength="153" x="1268" y="74.0151">DNI_CLIENTE decimal(18,0)</text><text fill="#000000" font-family="sans-serif" font-size="11" lengthAdjust="spacing" textLength="136" x="1268" y="86.8198">APELLIDO nvarchar(255)</text><text fill="#000000" font-family="sans-serif" font-size="11" lengthAdjust="spacing" textLength="130" x="1268" y="99.6245">NOMBRE nvarchar(255)</text><text fill="#000000" font-family="sans-serif" font-size="11" lengthAdjust="spacing" textLength="144" x="1268" y="112.4292">DIRECCION nvarchar(255)</text><text fill="#000000" font-family="sans-serif" font-size="11" lengthAdjust="spacing" textLength="191" x="1268" y="125.2339">FECHA_NACIMIENTO datetime2(3)</text><text fill="#000000" font-family="sans-serif" font-size="11" lengthAdjust="spacing" textLength="108" x="1268" y="138.0386">MAIL nvarchar(255)</text><text fill="#000000" font-family="sans-serif" font-size="11" lengthAdjust="spacing" textLength="77" x="1268" y="150.8433">TELEFONO int</text><!--MD5=[ca4c5cdcd38998b18b089114c2a32d85]
class ACCESORIOS--><rect codeLine="67" fill="#FEFECE" filter="url(#f1rl2y8rux708p)" height="73.6094" id="ACCESORIOS" style="stroke:#A80036;stroke-width:1.5;" width="281" x="1079" y="446"/><ellipse cx="1176.75" cy="462" fill="#ADD1B2" rx="11" ry="11" style="stroke:#A80036;stroke-width:1.0;"/><path d="M1175.5469,462.875 L1177,462.875 L1177,462.9844 C1177,463.3906 1177.0313,463.5469 1177.1094,463.7031 C1177.2656,463.9531 1177.5469,464.1094 1177.8438,464.1094 C1178.0938,464.1094 1178.3594,463.9688 1178.5156,463.75 C1178.6406,463.5938 1178.6719,463.4375 1178.6719,462.9844 L1178.6719,461.0625 C1178.6719,460.9063 1178.6719,460.8594 1178.6563,460.7031 C1178.5938,460.2344 1178.2813,459.9219 1177.8281,459.9219 C1177.5781,459.9219 1177.3125,460.0625 1177.1406,460.2813 C1177.0313,460.4531 1177,460.6094 1177,461.0625 L1177,461.1875 L1175.5469,461.1875 L1175.5469,458.7813 L1179.5313,458.7813 L1179.5313,459.6406 C1179.5313,460.0469 1179.5625,460.2188 1179.6406,460.375 C1179.8125,460.625 1180.0938,460.7813 1180.375,460.7813 C1180.6406,460.7813 1180.9063,460.6406 1181.0781,460.4219 C1181.1875,460.25 1181.2188,460.1094 1181.2188,459.6406 L1181.2188,457.0938 L1173.5938,457.0938 C1173.1563,457.0938 1173.0313,457.1094 1172.875,457.2031 C1172.625,457.3594 1172.4688,457.6563 1172.4688,457.9375 C1172.4688,458.2188 1172.6094,458.4688 1172.8281,458.6406 C1172.9844,458.75 1173.1719,458.7813 1173.5938,458.7813 L1173.8438,458.7813 L1173.8438,465.2969 L1173.5938,465.2969 C1173.1875,465.2969 1173.0313,465.3125 1172.875,465.4219 C1172.625,465.5938 1172.4688,465.8594 1172.4688,466.1563 C1172.4688,466.4219 1172.6094,466.6719 1172.8281,466.8281 C1172.9688,466.9531 1173.2031,467 1173.5938,467 L1181.5938,467 L1181.5938,464.4219 C1181.5938,463.9844 1181.5625,463.8438 1181.4844,463.6875 C1181.3125,463.4375 1181.0313,463.2813 1180.75,463.2813 C1180.4844,463.2813 1180.2188,463.3906 1180.0469,463.6406 C1179.9375,463.7969 1179.9063,463.9375 1179.9063,464.4219 L1179.9063,465.2969 L1175.5469,465.2969 L1175.5469,462.875 Z " fill="#000000"/><text fill="#000000" font-family="sans-serif" font-size="12" lengthAdjust="spacing" textLength="77" x="1197.25" y="466.1543">ACCESORIOS</text><line style="stroke:#A80036;stroke-width:1.5;" x1="1080" x2="1359" y1="478" y2="478"/><text fill="#000000" font-family="sans-serif" font-size="11" font-weight="bold" lengthAdjust="spacing" textLength="269" x="1085" y="492.2104">&lt;PK&gt;  CODIGO_ACCESORIO decimal(18,0)</text><line style="stroke:#A80036;stroke-width:1.0;" x1="1080" x2="1359" y1="498.8047" y2="498.8047"/><text fill="#000000" font-family="sans-serif" font-size="11" lengthAdjust="spacing" textLength="158" x="1085" y="513.0151">DESCRIPCION nvarchar(255)</text><!--MD5=[2628f93c2b91159b8b11117185f029f9]
class PCS--><rect codeLine="73" fill="#FEFECE" filter="url(#f1rl2y8rux708p)" height="112.0234" id="PCS" style="stroke:#A80036;stroke-width:1.5;" width="289" x="574" y="427"/><ellipse cx="703.25" cy="443" fill="#ADD1B2" rx="11" ry="11" style="stroke:#A80036;stroke-width:1.0;"/><path d="M702.0469,443.875 L703.5,443.875 L703.5,443.9844 C703.5,444.3906 703.5313,444.5469 703.6094,444.7031 C703.7656,444.9531 704.0469,445.1094 704.3438,445.1094 C704.5938,445.1094 704.8594,444.9688 705.0156,444.75 C705.1406,444.5938 705.1719,444.4375 705.1719,443.9844 L705.1719,442.0625 C705.1719,441.9063 705.1719,441.8594 705.1563,441.7031 C705.0938,441.2344 704.7813,440.9219 704.3281,440.9219 C704.0781,440.9219 703.8125,441.0625 703.6406,441.2813 C703.5313,441.4531 703.5,441.6094 703.5,442.0625 L703.5,442.1875 L702.0469,442.1875 L702.0469,439.7813 L706.0313,439.7813 L706.0313,440.6406 C706.0313,441.0469 706.0625,441.2188 706.1406,441.375 C706.3125,441.625 706.5938,441.7813 706.875,441.7813 C707.1406,441.7813 707.4063,441.6406 707.5781,441.4219 C707.6875,441.25 707.7188,441.1094 707.7188,440.6406 L707.7188,438.0938 L700.0938,438.0938 C699.6563,438.0938 699.5313,438.1094 699.375,438.2031 C699.125,438.3594 698.9688,438.6563 698.9688,438.9375 C698.9688,439.2188 699.1094,439.4688 699.3281,439.6406 C699.4844,439.75 699.6719,439.7813 700.0938,439.7813 L700.3438,439.7813 L700.3438,446.2969 L700.0938,446.2969 C699.6875,446.2969 699.5313,446.3125 699.375,446.4219 C699.125,446.5938 698.9688,446.8594 698.9688,447.1563 C698.9688,447.4219 699.1094,447.6719 699.3281,447.8281 C699.4688,447.9531 699.7031,448 700.0938,448 L708.0938,448 L708.0938,445.4219 C708.0938,444.9844 708.0625,444.8438 707.9844,444.6875 C707.8125,444.4375 707.5313,444.2813 707.25,444.2813 C706.9844,444.2813 706.7188,444.3906 706.5469,444.6406 C706.4375,444.7969 706.4063,444.9375 706.4063,445.4219 L706.4063,446.2969 L702.0469,446.2969 L702.0469,443.875 Z " fill="#000000"/><text fill="#000000" font-family="sans-serif" font-size="12" lengthAdjust="spacing" textLength="22" x="723.75" y="447.1543">PCS</text><line style="stroke:#A80036;stroke-width:1.5;" x1="575" x2="862" y1="459" y2="459"/><text fill="#000000" font-family="sans-serif" font-size="11" font-weight="bold" lengthAdjust="spacing" textLength="208" x="580" y="473.2104">&lt;PK&gt;  PC_CODIGO nvarchar(50)</text><line style="stroke:#A80036;stroke-width:1.0;" x1="575" x2="862" y1="479.8047" y2="479.8047"/><text fill="#000000" font-family="sans-serif" font-size="11" lengthAdjust="spacing" textLength="115" x="580" y="494.0151">ALTO decimal (18,2)</text><text fill="#000000" font-family="sans-serif" font-size="11" lengthAdjust="spacing" textLength="126" x="580" y="506.8198">ANCHO decimal (18,2)</text><text fill="#000000" font-family="sans-serif" font-size="11" lengthAdjust="spacing" textLength="167" x="580" y="519.6245">PROFUNDIDAD decimal (18,2)</text><text fill="#000000" font-family="sans-serif" font-size="11" lengthAdjust="spacing" textLength="277" x="580" y="532.4292">&lt;FK&gt; MICROPROCESADOR_CODIGO nvarchar(50)</text><!--MD5=[ab690ade59911b8f24db3a9387132f4b]
class MEMORIAS_RAM--><rect codeLine="82" fill="#FEFECE" filter="url(#f1rl2y8rux708p)" height="112.0234" id="MEMORIAS_RAM" style="stroke:#A80036;stroke-width:1.5;" width="303" x="386" y="777.5"/><ellipse cx="486.25" cy="793.5" fill="#ADD1B2" rx="11" ry="11" style="stroke:#A80036;stroke-width:1.0;"/><path d="M485.0469,794.375 L486.5,794.375 L486.5,794.4844 C486.5,794.8906 486.5313,795.0469 486.6094,795.2031 C486.7656,795.4531 487.0469,795.6094 487.3438,795.6094 C487.5938,795.6094 487.8594,795.4688 488.0156,795.25 C488.1406,795.0938 488.1719,794.9375 488.1719,794.4844 L488.1719,792.5625 C488.1719,792.4063 488.1719,792.3594 488.1563,792.2031 C488.0938,791.7344 487.7813,791.4219 487.3281,791.4219 C487.0781,791.4219 486.8125,791.5625 486.6406,791.7813 C486.5313,791.9531 486.5,792.1094 486.5,792.5625 L486.5,792.6875 L485.0469,792.6875 L485.0469,790.2813 L489.0313,790.2813 L489.0313,791.1406 C489.0313,791.5469 489.0625,791.7188 489.1406,791.875 C489.3125,792.125 489.5938,792.2813 489.875,792.2813 C490.1406,792.2813 490.4063,792.1406 490.5781,791.9219 C490.6875,791.75 490.7188,791.6094 490.7188,791.1406 L490.7188,788.5938 L483.0938,788.5938 C482.6563,788.5938 482.5313,788.6094 482.375,788.7031 C482.125,788.8594 481.9688,789.1563 481.9688,789.4375 C481.9688,789.7188 482.1094,789.9688 482.3281,790.1406 C482.4844,790.25 482.6719,790.2813 483.0938,790.2813 L483.3438,790.2813 L483.3438,796.7969 L483.0938,796.7969 C482.6875,796.7969 482.5313,796.8125 482.375,796.9219 C482.125,797.0938 481.9688,797.3594 481.9688,797.6563 C481.9688,797.9219 482.1094,798.1719 482.3281,798.3281 C482.4688,798.4531 482.7031,798.5 483.0938,798.5 L491.0938,798.5 L491.0938,795.9219 C491.0938,795.4844 491.0625,795.3438 490.9844,795.1875 C490.8125,794.9375 490.5313,794.7813 490.25,794.7813 C489.9844,794.7813 489.7188,794.8906 489.5469,795.1406 C489.4375,795.2969 489.4063,795.4375 489.4063,795.9219 L489.4063,796.7969 L485.0469,796.7969 L485.0469,794.375 Z " fill="#000000"/><text fill="#000000" font-family="sans-serif" font-size="12" lengthAdjust="spacing" textLength="94" x="506.75" y="797.6543">MEMORIAS_RAM</text><line style="stroke:#A80036;stroke-width:1.5;" x1="387" x2="688" y1="809.5" y2="809.5"/><text fill="#000000" font-family="sans-serif" font-size="11" font-weight="bold" lengthAdjust="spacing" textLength="291" x="392" y="823.7104">&lt;PK&gt;  MEMORIA_RAM_CODIGO nvarchar(255)</text><line style="stroke:#A80036;stroke-width:1.0;" x1="387" x2="688" y1="830.3047" y2="830.3047"/><text fill="#000000" font-family="sans-serif" font-size="11" lengthAdjust="spacing" textLength="107" x="392" y="844.5151">TIPO nvarchar(255)</text><text fill="#000000" font-family="sans-serif" font-size="11" lengthAdjust="spacing" textLength="149" x="392" y="857.3198">VELOCIDAD nvarchar(255)</text><text fill="#000000" font-family="sans-serif" font-size="11" lengthAdjust="spacing" textLength="149" x="392" y="870.1245">CAPACIDAD nvarchar(255)</text><text fill="#000000" font-family="sans-serif" font-size="11" lengthAdjust="spacing" textLength="152" x="392" y="882.9292">FABRICANTE nvarchar(255)</text><!--MD5=[b3149fcb4e5dd9e74288dbc0332d239d]
class MICROPROCESADORES--><rect codeLine="91" fill="#FEFECE" filter="url(#f1rl2y8rux708p)" height="112.0234" id="MICROPROCESADORES" style="stroke:#A80036;stroke-width:1.5;" width="327" x="1098" y="599"/><ellipse cx="1190.75" cy="615" fill="#ADD1B2" rx="11" ry="11" style="stroke:#A80036;stroke-width:1.0;"/><path d="M1189.5469,615.875 L1191,615.875 L1191,615.9844 C1191,616.3906 1191.0313,616.5469 1191.1094,616.7031 C1191.2656,616.9531 1191.5469,617.1094 1191.8438,617.1094 C1192.0938,617.1094 1192.3594,616.9688 1192.5156,616.75 C1192.6406,616.5938 1192.6719,616.4375 1192.6719,615.9844 L1192.6719,614.0625 C1192.6719,613.9063 1192.6719,613.8594 1192.6563,613.7031 C1192.5938,613.2344 1192.2813,612.9219 1191.8281,612.9219 C1191.5781,612.9219 1191.3125,613.0625 1191.1406,613.2813 C1191.0313,613.4531 1191,613.6094 1191,614.0625 L1191,614.1875 L1189.5469,614.1875 L1189.5469,611.7813 L1193.5313,611.7813 L1193.5313,612.6406 C1193.5313,613.0469 1193.5625,613.2188 1193.6406,613.375 C1193.8125,613.625 1194.0938,613.7813 1194.375,613.7813 C1194.6406,613.7813 1194.9063,613.6406 1195.0781,613.4219 C1195.1875,613.25 1195.2188,613.1094 1195.2188,612.6406 L1195.2188,610.0938 L1187.5938,610.0938 C1187.1563,610.0938 1187.0313,610.1094 1186.875,610.2031 C1186.625,610.3594 1186.4688,610.6563 1186.4688,610.9375 C1186.4688,611.2188 1186.6094,611.4688 1186.8281,611.6406 C1186.9844,611.75 1187.1719,611.7813 1187.5938,611.7813 L1187.8438,611.7813 L1187.8438,618.2969 L1187.5938,618.2969 C1187.1875,618.2969 1187.0313,618.3125 1186.875,618.4219 C1186.625,618.5938 1186.4688,618.8594 1186.4688,619.1563 C1186.4688,619.4219 1186.6094,619.6719 1186.8281,619.8281 C1186.9688,619.9531 1187.2031,620 1187.5938,620 L1195.5938,620 L1195.5938,617.4219 C1195.5938,616.9844 1195.5625,616.8438 1195.4844,616.6875 C1195.3125,616.4375 1195.0313,616.2813 1194.75,616.2813 C1194.4844,616.2813 1194.2188,616.3906 1194.0469,616.6406 C1193.9375,616.7969 1193.9063,616.9375 1193.9063,617.4219 L1193.9063,618.2969 L1189.5469,618.2969 L1189.5469,615.875 Z " fill="#000000"/><text fill="#000000" font-family="sans-serif" font-size="12" lengthAdjust="spacing" textLength="133" x="1211.25" y="619.1543">MICROPROCESADORES</text><line style="stroke:#A80036;stroke-width:1.5;" x1="1099" x2="1424" y1="631" y2="631"/><text fill="#000000" font-family="sans-serif" font-size="11" font-weight="bold" lengthAdjust="spacing" textLength="315" x="1104" y="645.2104">&lt;PK&gt; MICROPROCESADOR_CODIGO nvarchar(50)</text><line style="stroke:#A80036;stroke-width:1.0;" x1="1099" x2="1424" y1="651.8047" y2="651.8047"/><text fill="#000000" font-family="sans-serif" font-size="11" lengthAdjust="spacing" textLength="181" x="1104" y="666.0151">CANTIDAD_HILOS decimal(18,0)</text><text fill="#000000" font-family="sans-serif" font-size="11" lengthAdjust="spacing" textLength="114" x="1104" y="678.8198">CACHE nvarchar(50)</text><text fill="#000000" font-family="sans-serif" font-size="11" lengthAdjust="spacing" textLength="142" x="1104" y="691.6245">VELOCIDAD nvarchar(50)</text><text fill="#000000" font-family="sans-serif" font-size="11" lengthAdjust="spacing" textLength="152" x="1104" y="704.4292">FABRICANTE nvarchar(255)</text><!--MD5=[397651b10071f7513f4b679488bcf27d]
class COMPRAS_PC--><rect codeLine="100" fill="#FEFECE" filter="url(#f1rl2y8rux708p)" height="137.6328" id="COMPRAS_PC" style="stroke:#A80036;stroke-width:1.5;" width="283" x="396" y="223"/><ellipse cx="494.75" cy="239" fill="#ADD1B2" rx="11" ry="11" style="stroke:#A80036;stroke-width:1.0;"/><path d="M493.5469,239.875 L495,239.875 L495,239.9844 C495,240.3906 495.0313,240.5469 495.1094,240.7031 C495.2656,240.9531 495.5469,241.1094 495.8438,241.1094 C496.0938,241.1094 496.3594,240.9688 496.5156,240.75 C496.6406,240.5938 496.6719,240.4375 496.6719,239.9844 L496.6719,238.0625 C496.6719,237.9063 496.6719,237.8594 496.6563,237.7031 C496.5938,237.2344 496.2813,236.9219 495.8281,236.9219 C495.5781,236.9219 495.3125,237.0625 495.1406,237.2813 C495.0313,237.4531 495,237.6094 495,238.0625 L495,238.1875 L493.5469,238.1875 L493.5469,235.7813 L497.5313,235.7813 L497.5313,236.6406 C497.5313,237.0469 497.5625,237.2188 497.6406,237.375 C497.8125,237.625 498.0938,237.7813 498.375,237.7813 C498.6406,237.7813 498.9063,237.6406 499.0781,237.4219 C499.1875,237.25 499.2188,237.1094 499.2188,236.6406 L499.2188,234.0938 L491.5938,234.0938 C491.1563,234.0938 491.0313,234.1094 490.875,234.2031 C490.625,234.3594 490.4688,234.6563 490.4688,234.9375 C490.4688,235.2188 490.6094,235.4688 490.8281,235.6406 C490.9844,235.75 491.1719,235.7813 491.5938,235.7813 L491.8438,235.7813 L491.8438,242.2969 L491.5938,242.2969 C491.1875,242.2969 491.0313,242.3125 490.875,242.4219 C490.625,242.5938 490.4688,242.8594 490.4688,243.1563 C490.4688,243.4219 490.6094,243.6719 490.8281,243.8281 C490.9688,243.9531 491.2031,244 491.5938,244 L499.5938,244 L499.5938,241.4219 C499.5938,240.9844 499.5625,240.8438 499.4844,240.6875 C499.3125,240.4375 499.0313,240.2813 498.75,240.2813 C498.4844,240.2813 498.2188,240.3906 498.0469,240.6406 C497.9375,240.7969 497.9063,240.9375 497.9063,241.4219 L497.9063,242.2969 L493.5469,242.2969 L493.5469,239.875 Z " fill="#000000"/><text fill="#000000" font-family="sans-serif" font-size="12" lengthAdjust="spacing" textLength="77" x="515.25" y="243.1543">COMPRAS_PC</text><line style="stroke:#A80036;stroke-width:1.5;" x1="397" x2="678" y1="255" y2="255"/><text fill="#000000" font-family="sans-serif" font-size="11" font-weight="bold" lengthAdjust="spacing" textLength="271" x="402" y="269.2104">&lt;PK&gt; CODIGO_COMPRA_PC decimal(18,0)</text><line style="stroke:#A80036;stroke-width:1.0;" x1="397" x2="678" y1="275.8047" y2="275.8047"/><text fill="#000000" font-family="sans-serif" font-size="11" lengthAdjust="spacing" textLength="177" x="402" y="290.0151">&lt;FK&gt; PC_CODIGO nvarchar(50)</text><text fill="#000000" font-family="sans-serif" font-size="11" lengthAdjust="spacing" textLength="133" x="402" y="302.8198">NUMERO decimal (18,0)</text><text fill="#000000" font-family="sans-serif" font-size="11" lengthAdjust="spacing" textLength="115" x="402" y="315.6245">FECHA datetime2(3)</text><text fill="#000000" font-family="sans-serif" font-size="11" lengthAdjust="spacing" textLength="141" x="402" y="328.4292">CANTIDAD decimal(18,0)</text><text fill="#000000" font-family="sans-serif" font-size="11" lengthAdjust="spacing" textLength="121" x="402" y="341.2339">PRECIO decimal(18,2)</text><text fill="#000000" font-family="sans-serif" font-size="11" lengthAdjust="spacing" textLength="167" x="402" y="354.0386">&lt;FK&gt; CODIGO_SUCURSAL int</text><!--MD5=[deeb17ad47d5dc1e6ac26f3b915a1c4d]
class VENTAS_PC--><rect codeLine="111" fill="#FEFECE" filter="url(#f1rl2y8rux708p)" height="150.4375" id="VENTAS_PC" style="stroke:#A80036;stroke-width:1.5;" width="270" x="1088.5" y="217"/><ellipse cx="1186.25" cy="233" fill="#ADD1B2" rx="11" ry="11" style="stroke:#A80036;stroke-width:1.0;"/><path d="M1185.0469,233.875 L1186.5,233.875 L1186.5,233.9844 C1186.5,234.3906 1186.5313,234.5469 1186.6094,234.7031 C1186.7656,234.9531 1187.0469,235.1094 1187.3438,235.1094 C1187.5938,235.1094 1187.8594,234.9688 1188.0156,234.75 C1188.1406,234.5938 1188.1719,234.4375 1188.1719,233.9844 L1188.1719,232.0625 C1188.1719,231.9063 1188.1719,231.8594 1188.1563,231.7031 C1188.0938,231.2344 1187.7813,230.9219 1187.3281,230.9219 C1187.0781,230.9219 1186.8125,231.0625 1186.6406,231.2813 C1186.5313,231.4531 1186.5,231.6094 1186.5,232.0625 L1186.5,232.1875 L1185.0469,232.1875 L1185.0469,229.7813 L1189.0313,229.7813 L1189.0313,230.6406 C1189.0313,231.0469 1189.0625,231.2188 1189.1406,231.375 C1189.3125,231.625 1189.5938,231.7813 1189.875,231.7813 C1190.1406,231.7813 1190.4063,231.6406 1190.5781,231.4219 C1190.6875,231.25 1190.7188,231.1094 1190.7188,230.6406 L1190.7188,228.0938 L1183.0938,228.0938 C1182.6563,228.0938 1182.5313,228.1094 1182.375,228.2031 C1182.125,228.3594 1181.9688,228.6563 1181.9688,228.9375 C1181.9688,229.2188 1182.1094,229.4688 1182.3281,229.6406 C1182.4844,229.75 1182.6719,229.7813 1183.0938,229.7813 L1183.3438,229.7813 L1183.3438,236.2969 L1183.0938,236.2969 C1182.6875,236.2969 1182.5313,236.3125 1182.375,236.4219 C1182.125,236.5938 1181.9688,236.8594 1181.9688,237.1563 C1181.9688,237.4219 1182.1094,237.6719 1182.3281,237.8281 C1182.4688,237.9531 1182.7031,238 1183.0938,238 L1191.0938,238 L1191.0938,235.4219 C1191.0938,234.9844 1191.0625,234.8438 1190.9844,234.6875 C1190.8125,234.4375 1190.5313,234.2813 1190.25,234.2813 C1189.9844,234.2813 1189.7188,234.3906 1189.5469,234.6406 C1189.4375,234.7969 1189.4063,234.9375 1189.4063,235.4219 L1189.4063,236.2969 L1185.0469,236.2969 L1185.0469,233.875 Z " fill="#000000"/><text fill="#000000" font-family="sans-serif" font-size="12" lengthAdjust="spacing" textLength="66" x="1206.75" y="237.1543">VENTAS_PC</text><line style="stroke:#A80036;stroke-width:1.5;" x1="1089.5" x2="1357.5" y1="249" y2="249"/><text fill="#000000" font-family="sans-serif" font-size="11" font-weight="bold" lengthAdjust="spacing" textLength="258" x="1094.5" y="263.2104">&lt;PK&gt; CODIGO_VENTA_PC decimal(18,0)</text><line style="stroke:#A80036;stroke-width:1.0;" x1="1089.5" x2="1357.5" y1="269.8047" y2="269.8047"/><text fill="#000000" font-family="sans-serif" font-size="11" lengthAdjust="spacing" textLength="187" x="1094.5" y="284.0151">FACTURA_NUMERO decimal(18,0)</text><text fill="#000000" font-family="sans-serif" font-size="11" lengthAdjust="spacing" textLength="177" x="1094.5" y="296.8198">&lt;FK&gt; PC_CODIGO nvarchar(50)</text><text fill="#000000" font-family="sans-serif" font-size="11" lengthAdjust="spacing" textLength="215" x="1094.5" y="309.6245">&lt;FK&gt; CODIGO_CLIENTE decimal(18,0)</text><text fill="#000000" font-family="sans-serif" font-size="11" lengthAdjust="spacing" textLength="141" x="1094.5" y="322.4292">CANTIDAD decimal(18,0)</text><text fill="#000000" font-family="sans-serif" font-size="11" lengthAdjust="spacing" textLength="121" x="1094.5" y="335.2339">PRECIO decimal(18,2)</text><text fill="#000000" font-family="sans-serif" font-size="11" lengthAdjust="spacing" textLength="115" x="1094.5" y="348.0386">FECHA datetime2(3)</text><text fill="#000000" font-family="sans-serif" font-size="11" lengthAdjust="spacing" textLength="167" x="1094.5" y="360.8433">&lt;FK&gt; CODIGO_SUCURSAL int</text><!--MD5=[e0923d1074b1f3fb1242922beb286f2e]
class VENTAS_ACCESORIO--><rect codeLine="123" fill="#FEFECE" filter="url(#f1rl2y8rux708p)" height="150.4375" id="VENTAS_ACCESORIO" style="stroke:#A80036;stroke-width:1.5;" width="326" x="1393.5" y="217"/><ellipse cx="1491.75" cy="233" fill="#ADD1B2" rx="11" ry="11" style="stroke:#A80036;stroke-width:1.0;"/><path d="M1490.5469,233.875 L1492,233.875 L1492,233.9844 C1492,234.3906 1492.0313,234.5469 1492.1094,234.7031 C1492.2656,234.9531 1492.5469,235.1094 1492.8438,235.1094 C1493.0938,235.1094 1493.3594,234.9688 1493.5156,234.75 C1493.6406,234.5938 1493.6719,234.4375 1493.6719,233.9844 L1493.6719,232.0625 C1493.6719,231.9063 1493.6719,231.8594 1493.6563,231.7031 C1493.5938,231.2344 1493.2813,230.9219 1492.8281,230.9219 C1492.5781,230.9219 1492.3125,231.0625 1492.1406,231.2813 C1492.0313,231.4531 1492,231.6094 1492,232.0625 L1492,232.1875 L1490.5469,232.1875 L1490.5469,229.7813 L1494.5313,229.7813 L1494.5313,230.6406 C1494.5313,231.0469 1494.5625,231.2188 1494.6406,231.375 C1494.8125,231.625 1495.0938,231.7813 1495.375,231.7813 C1495.6406,231.7813 1495.9063,231.6406 1496.0781,231.4219 C1496.1875,231.25 1496.2188,231.1094 1496.2188,230.6406 L1496.2188,228.0938 L1488.5938,228.0938 C1488.1563,228.0938 1488.0313,228.1094 1487.875,228.2031 C1487.625,228.3594 1487.4688,228.6563 1487.4688,228.9375 C1487.4688,229.2188 1487.6094,229.4688 1487.8281,229.6406 C1487.9844,229.75 1488.1719,229.7813 1488.5938,229.7813 L1488.8438,229.7813 L1488.8438,236.2969 L1488.5938,236.2969 C1488.1875,236.2969 1488.0313,236.3125 1487.875,236.4219 C1487.625,236.5938 1487.4688,236.8594 1487.4688,237.1563 C1487.4688,237.4219 1487.6094,237.6719 1487.8281,237.8281 C1487.9688,237.9531 1488.2031,238 1488.5938,238 L1496.5938,238 L1496.5938,235.4219 C1496.5938,234.9844 1496.5625,234.8438 1496.4844,234.6875 C1496.3125,234.4375 1496.0313,234.2813 1495.75,234.2813 C1495.4844,234.2813 1495.2188,234.3906 1495.0469,234.6406 C1494.9375,234.7969 1494.9063,234.9375 1494.9063,235.4219 L1494.9063,236.2969 L1490.5469,236.2969 L1490.5469,233.875 Z " fill="#000000"/><text fill="#000000" font-family="sans-serif" font-size="12" lengthAdjust="spacing" textLength="121" x="1512.25" y="237.1543">VENTAS_ACCESORIO</text><line style="stroke:#A80036;stroke-width:1.5;" x1="1394.5" x2="1718.5" y1="249" y2="249"/><text fill="#000000" font-family="sans-serif" font-size="11" font-weight="bold" lengthAdjust="spacing" textLength="314" x="1399.5" y="263.2104">&lt;PK&gt; CODIGO_VENTA_ACCESORIO decimal(18,0)</text><line style="stroke:#A80036;stroke-width:1.0;" x1="1394.5" x2="1718.5" y1="269.8047" y2="269.8047"/><text fill="#000000" font-family="sans-serif" font-size="11" lengthAdjust="spacing" textLength="187" x="1399.5" y="284.0151">FACTURA_NUMERO decimal(18,0)</text><text fill="#000000" font-family="sans-serif" font-size="11" lengthAdjust="spacing" textLength="236" x="1399.5" y="296.8198">&lt;FK&gt; CODIGO_ACCESORIO decimal(18,0)</text><text fill="#000000" font-family="sans-serif" font-size="11" lengthAdjust="spacing" textLength="215" x="1399.5" y="309.6245">&lt;FK&gt; CODIGO_CLIENTE decimal(18,0)</text><text fill="#000000" font-family="sans-serif" font-size="11" lengthAdjust="spacing" textLength="141" x="1399.5" y="322.4292">CANTIDAD decimal(18,0)</text><text fill="#000000" font-family="sans-serif" font-size="11" lengthAdjust="spacing" textLength="121" x="1399.5" y="335.2339">PRECIO decimal(18,2)</text><text fill="#000000" font-family="sans-serif" font-size="11" lengthAdjust="spacing" textLength="115" x="1399.5" y="348.0386">FECHA datetime2(3)</text><text fill="#000000" font-family="sans-serif" font-size="11" lengthAdjust="spacing" textLength="167" x="1399.5" y="360.8433">&lt;FK&gt; CODIGO_SUCURSAL int</text><!--MD5=[58b7c9e4f3f1f19c673783ac4a976f0d]
link PCS to PCS_DISCOS_RIGIDOS--><path codeLine="135" d="M566.056,531.378 C480.66,557.917 375.539,590.587 295.281,615.531 " fill="none" id="PCS-PCS_DISCOS_RIGIDOS" style="stroke:#A80036;stroke-width:1.0;"/><line style="stroke:#A80036;stroke-width:1.0;" x1="295.2325" x2="289.9676" y1="615.5454" y2="617.92"/><line style="stroke:#A80036;stroke-width:1.0;" x1="295.2325" x2="285.2184" y1="615.5454" y2="617.92"/><line style="stroke:#A80036;stroke-width:1.0;" x1="295.2325" x2="287.593" y1="615.5454" y2="617.92"/><line style="stroke:#A80036;stroke-width:1.0;" x1="568.702" x2="571.0765" y1="526.3665" y2="534.006"/><line style="stroke:#A80036;stroke-width:1.0;" x1="565.8372" x2="568.2117" y1="527.257" y2="534.8965"/><line style="stroke:#A80036;stroke-width:1.0;" x1="566.0695" x2="573.709" y1="531.3736" y2="528.999"/><!--MD5=[9b575baa84bb036cc93c3e91f9561e1b]
link PCS_DISCOS_RIGIDOS to DISCOS_RIGIDOS--><path codeLine="136" d="M171.5,700.161 C171.5,720.97 171.5,746.181 171.5,768.992 " fill="none" id="PCS_DISCOS_RIGIDOS-DISCOS_RIGIDOS" style="stroke:#A80036;stroke-width:1.0;"/><line style="stroke:#A80036;stroke-width:1.0;" x1="175.5" x2="167.5" y1="773.276" y2="773.276"/><line style="stroke:#A80036;stroke-width:1.0;" x1="175.5" x2="167.5" y1="770.276" y2="770.276"/><line style="stroke:#A80036;stroke-width:1.0;" x1="171.5" x2="171.5" y1="769.276" y2="777.276"/><line style="stroke:#A80036;stroke-width:1.0;" x1="171.5" x2="163.5" y1="700.143" y2="692.143"/><line style="stroke:#A80036;stroke-width:1.0;" x1="171.5" x2="179.5" y1="700.143" y2="692.143"/><line style="stroke:#A80036;stroke-width:1.0;" x1="171.5" x2="171.5" y1="700.143" y2="692.143"/><!--MD5=[9e2c09cd6d925d7051294a0ea436da75]
link PCS to PCS_MEMORIAS_RAM--><path codeLine="137" d="M653.881,544.692 C630.065,567.061 603.638,591.881 581.994,612.21 " fill="none" id="PCS-PCS_MEMORIAS_RAM" style="stroke:#A80036;stroke-width:1.0;"/><line style="stroke:#A80036;stroke-width:1.0;" x1="581.8539" x2="581.4982" y1="612.3428" y2="617.819"/><line style="stroke:#A80036;stroke-width:1.0;" x1="581.8539" x2="570.5458" y1="612.3428" y2="617.819"/><line style="stroke:#A80036;stroke-width:1.0;" x1="581.8539" x2="576.022" y1="612.3428" y2="617.819"/><line style="stroke:#A80036;stroke-width:1.0;" x1="654.0799" x2="659.5569" y1="539.0169" y2="544.8481"/><line style="stroke:#A80036;stroke-width:1.0;" x1="651.8932" x2="657.3702" y1="541.0707" y2="546.9019"/><line style="stroke:#A80036;stroke-width:1.0;" x1="653.9028" x2="659.734" y1="544.6709" y2="539.194"/><!--MD5=[94f15e5a90c45487f10cd9e580db3635]
link PCS_MEMORIAS_RAM to MEMORIAS_RAM--><path codeLine="138" d="M537.5,700.161 C537.5,720.97 537.5,746.181 537.5,768.992 " fill="none" id="PCS_MEMORIAS_RAM-MEMORIAS_RAM" style="stroke:#A80036;stroke-width:1.0;"/><line style="stroke:#A80036;stroke-width:1.0;" x1="541.5" x2="533.5" y1="773.276" y2="773.276"/><line style="stroke:#A80036;stroke-width:1.0;" x1="541.5" x2="533.5" y1="770.276" y2="770.276"/><line style="stroke:#A80036;stroke-width:1.0;" x1="537.5" x2="537.5" y1="769.276" y2="777.276"/><line style="stroke:#A80036;stroke-width:1.0;" x1="537.5" x2="529.5" y1="700.143" y2="692.143"/><line style="stroke:#A80036;stroke-width:1.0;" x1="537.5" x2="545.5" y1="700.143" y2="692.143"/><line style="stroke:#A80036;stroke-width:1.0;" x1="537.5" x2="537.5" y1="700.143" y2="692.143"/><!--MD5=[81f465dfcb4768e9241c008a9510b8ed]
link PCS to MICROPROCESADORES--><path codeLine="139" d="M870.978,531.737 C939.223,553.103 1019.98,578.386 1090.29,600.399 " fill="none" id="PCS-MICROPROCESADORES" style="stroke:#A80036;stroke-width:1.0;"/><line style="stroke:#A80036;stroke-width:1.0;" x1="1095.3135" x2="1092.9147" y1="597.7767" y2="605.4085"/><line style="stroke:#A80036;stroke-width:1.0;" x1="1092.4515" x2="1090.0527" y1="596.8771" y2="604.509"/><line style="stroke:#A80036;stroke-width:1.0;" x1="1090.2981" x2="1097.93" y1="600.3932" y2="602.792"/><line style="stroke:#A80036;stroke-width:1.0;" x1="870.9356" x2="863.301" y1="531.7241" y2="536.9686"/><line style="stroke:#A80036;stroke-width:1.0;" x1="870.9356" x2="863.301" y1="531.7241" y2="521.6994"/><line style="stroke:#A80036;stroke-width:1.0;" x1="870.9356" x2="863.301" y1="531.7241" y2="529.334"/><!--MD5=[ff511d444141a6317a7d9651538805eb]
link PCS to PCS_PLACAS_VIDEO--><path codeLine="140" d="M783.476,544.692 C807.424,567.061 833.997,591.881 855.76,612.21 " fill="none" id="PCS-PCS_PLACAS_VIDEO" style="stroke:#A80036;stroke-width:1.0;"/><line style="stroke:#A80036;stroke-width:1.0;" x1="855.9193" x2="867.2264" y1="612.3576" y2="617.819"/><line style="stroke:#A80036;stroke-width:1.0;" x1="855.9193" x2="856.3036" y1="612.3576" y2="617.819"/><line style="stroke:#A80036;stroke-width:1.0;" x1="855.9193" x2="861.765" y1="612.3576" y2="617.819"/><line style="stroke:#A80036;stroke-width:1.0;" x1="777.7821" x2="783.2436" y1="544.8476" y2="539.0019"/><line style="stroke:#A80036;stroke-width:1.0;" x1="779.9743" x2="785.4357" y1="546.8956" y2="541.0499"/><line style="stroke:#A80036;stroke-width:1.0;" x1="783.4357" x2="777.59" y1="544.6554" y2="539.194"/><!--MD5=[394ca3ab84128319f67412967725645a]
link PCS_PLACAS_VIDEO to PLACAS_VIDEO--><path codeLine="141" d="M900.5,700.361 C900.5,719.152 900.5,741.503 900.5,762.429 " fill="none" id="PCS_PLACAS_VIDEO-PLACAS_VIDEO" style="stroke:#A80036;stroke-width:1.0;"/><line style="stroke:#A80036;stroke-width:1.0;" x1="904.5" x2="896.5" y1="766.676" y2="766.676"/><line style="stroke:#A80036;stroke-width:1.0;" x1="904.5" x2="896.5" y1="763.676" y2="763.676"/><line style="stroke:#A80036;stroke-width:1.0;" x1="900.5" x2="900.5" y1="762.676" y2="770.676"/><line style="stroke:#A80036;stroke-width:1.0;" x1="900.5" x2="892.5" y1="700.143" y2="692.143"/><line style="stroke:#A80036;stroke-width:1.0;" x1="900.5" x2="908.5" y1="700.143" y2="692.143"/><line style="stroke:#A80036;stroke-width:1.0;" x1="900.5" x2="900.5" y1="700.143" y2="692.143"/><!--MD5=[2c37d4b47a02246379a9dcd3c324fca8]
link COMPRAS_PC to PCS--><path codeLine="145" d="M608.455,367.092 C625.446,384.833 643.401,403.581 659.768,420.672 " fill="none" id="COMPRAS_PC-PCS" style="stroke:#A80036;stroke-width:1.0;"/><line style="stroke:#A80036;stroke-width:1.0;" x1="665.8441" x2="660.0665" y1="421.2335" y2="426.7669"/><line style="stroke:#A80036;stroke-width:1.0;" x1="663.7691" x2="657.9914" y1="419.0668" y2="424.6003"/><line style="stroke:#A80036;stroke-width:1.0;" x1="660.1886" x2="665.722" y1="421.1113" y2="426.889"/><line style="stroke:#A80036;stroke-width:1.0;" x1="608.3777" x2="597.0666" y1="367.0114" y2="361.233"/><line style="stroke:#A80036;stroke-width:1.0;" x1="608.3777" x2="608.6234" y1="367.0114" y2="361.233"/><line style="stroke:#A80036;stroke-width:1.0;" x1="608.3777" x2="602.845" y1="367.0114" y2="361.233"/><!--MD5=[6f3e8c13b1cdcd2f1d27e0497a3eaa33]
link VENTAS_PC to PCS--><path codeLine="146" d="M1080.79,362.77 C1077.33,364.217 1073.9,365.629 1070.5,367 C1006.169,392.928 933.544,417.427 871.041,437.096 " fill="none" id="VENTAS_PC-PCS" style="stroke:#A80036;stroke-width:1.0;"/><line style="stroke:#A80036;stroke-width:1.0;" x1="868.0914" x2="865.6983" y1="442.2133" y2="434.5796"/><line style="stroke:#A80036;stroke-width:1.0;" x1="870.954" x2="868.5609" y1="441.3159" y2="433.6822"/><line style="stroke:#A80036;stroke-width:1.0;" x1="870.7117" x2="863.078" y1="437.1999" y2="439.593"/><line style="stroke:#A80036;stroke-width:1.0;" x1="1081.0069" x2="1088.37" y1="362.6801" y2="352.1889"/><line style="stroke:#A80036;stroke-width:1.0;" x1="1081.0069" x2="1088.37" y1="362.6801" y2="366.9151"/><line style="stroke:#A80036;stroke-width:1.0;" x1="1081.0069" x2="1088.37" y1="362.6801" y2="359.552"/><!--MD5=[f31ee34de2152fa4a5eec8890320dcd6]
link COMPRAS_ACCESORIO to ACCESORIOS--><path codeLine="148" d="M1012.01,365.285 C1058.2,391.267 1108.61,419.624 1148.18,441.881 " fill="none" id="COMPRAS_ACCESORIO-ACCESORIOS" style="stroke:#A80036;stroke-width:1.0;"/><line style="stroke:#A80036;stroke-width:1.0;" x1="1153.9185" x2="1149.9916" y1="440.5156" y2="447.4855"/><line style="stroke:#A80036;stroke-width:1.0;" x1="1151.3048" x2="1147.3779" y1="439.043" y2="446.0129"/><line style="stroke:#A80036;stroke-width:1.0;" x1="1148.4701" x2="1155.44" y1="442.0371" y2="445.964"/><line style="stroke:#A80036;stroke-width:1.0;" x1="1011.7739" x2="1000.8771" y1="365.1599" y2="361.233"/><line style="stroke:#A80036;stroke-width:1.0;" x1="1011.7739" x2="1008.7309" y1="365.1599" y2="361.233"/><line style="stroke:#A80036;stroke-width:1.0;" x1="1011.7739" x2="1004.804" y1="365.1599" y2="361.233"/><!--MD5=[993e5beac5eecedf44e9a2afdc33a3d1]
link VENTAS_ACCESORIO to ACCESORIOS--><path codeLine="149" d="M1417.17,371.14 C1373.76,395.485 1327.69,421.325 1290.95,441.927 " fill="none" id="VENTAS_ACCESORIO-ACCESORIOS" style="stroke:#A80036;stroke-width:1.0;"/><line style="stroke:#A80036;stroke-width:1.0;" x1="1289.1756" x2="1285.2614" y1="447.5074" y2="440.5304"/><line style="stroke:#A80036;stroke-width:1.0;" x1="1291.792" x2="1287.8778" y1="446.0396" y2="439.0625"/><line style="stroke:#A80036;stroke-width:1.0;" x1="1290.707" x2="1283.73" y1="442.0618" y2="445.976"/><line style="stroke:#A80036;stroke-width:1.0;" x1="1417.3026" x2="1420.3664" y1="371.0686" y2="367.155"/><line style="stroke:#A80036;stroke-width:1.0;" x1="1417.3026" x2="1428.1936" y1="371.0686" y2="367.155"/><line style="stroke:#A80036;stroke-width:1.0;" x1="1417.3026" x2="1424.28" y1="371.0686" y2="367.155"/><!--MD5=[109f6067e521d3922af471f55316871c]
link SUCURSALES to COMPRAS_ACCESORIO--><path codeLine="151" d="M968.946,145.322 C955.947,167.484 941.173,192.671 927.609,215.797 " fill="none" id="SUCURSALES-COMPRAS_ACCESORIO" style="stroke:#A80036;stroke-width:1.0;"/><line style="stroke:#A80036;stroke-width:1.0;" x1="927.4889" x2="930.3429" y1="216.0011" y2="222.902"/><line style="stroke:#A80036;stroke-width:1.0;" x1="927.4889" x2="916.5411" y1="216.0011" y2="222.902"/><line style="stroke:#A80036;stroke-width:1.0;" x1="927.4889" x2="923.442" y1="216.0011" y2="222.902"/><line style="stroke:#A80036;stroke-width:1.0;" x1="967.653" x2="974.5535" y1="139.6205" y2="143.668"/><line style="stroke:#A80036;stroke-width:1.0;" x1="966.1352" x2="973.0357" y1="142.2083" y2="146.2557"/><line style="stroke:#A80036;stroke-width:1.0;" x1="969.0795" x2="973.127" y1="145.0946" y2="138.194"/><!--MD5=[3d00817bb1ea804f7406cb2cbae831d3]
link SUCURSALES to COMPRAS_PC--><path codeLine="152" d="M898.152,128.727 C838.579,154.31 763.246,187.002 696.5,217 C693.209,218.479 689.881,219.98 686.528,221.498 " fill="none" id="SUCURSALES-COMPRAS_PC" style="stroke:#A80036;stroke-width:1.0;"/><line style="stroke:#A80036;stroke-width:1.0;" x1="686.4367" x2="679.151" y1="221.5397" y2="232.1297"/><line style="stroke:#A80036;stroke-width:1.0;" x1="686.4367" x2="679.151" y1="221.5397" y2="217.5583"/><line style="stroke:#A80036;stroke-width:1.0;" x1="686.4367" x2="679.151" y1="221.5397" y2="224.844"/><line style="stroke:#A80036;stroke-width:1.0;" x1="900.4535" x2="903.6092" y1="123.3862" y2="130.7375"/><line style="stroke:#A80036;stroke-width:1.0;" x1="897.6968" x2="900.8524" y1="124.5696" y2="131.9209"/><line style="stroke:#A80036;stroke-width:1.0;" x1="898.3557" x2="905.707" y1="128.6397" y2="125.484"/><!--MD5=[7727e39d13b4052316940bd05bbf556a]
link SUCURSALES to VENTAS_PC--><path codeLine="153" d="M1069.34,143.915 C1091.37,164.933 1116.39,188.803 1139.77,211.108 " fill="none" id="SUCURSALES-VENTAS_PC" style="stroke:#A80036;stroke-width:1.0;"/><line style="stroke:#A80036;stroke-width:1.0;" x1="1139.8847" x2="1151.1954" y1="211.2166" y2="216.742"/><line style="stroke:#A80036;stroke-width:1.0;" x1="1139.8847" x2="1140.1446" y1="211.2166" y2="216.742"/><line style="stroke:#A80036;stroke-width:1.0;" x1="1139.8847" x2="1145.67" y1="211.2166" y2="216.742"/><line style="stroke:#A80036;stroke-width:1.0;" x1="1063.4792" x2="1069.0054" y1="143.8494" y2="138.0648"/><line style="stroke:#A80036;stroke-width:1.0;" x1="1065.6485" x2="1071.1746" y1="145.9217" y2="140.1371"/><line style="stroke:#A80036;stroke-width:1.0;" x1="1069.1346" x2="1063.35" y1="143.7201" y2="138.194"/><!--MD5=[01c6139a1f0a1bfcab463492010b079c]
link SUCURSALES to VENTAS_ACCESORIO--><path codeLine="154" d="M1113.22,120.711 C1187.27,146.952 1287.7,183.167 1375.5,217 C1378.89,218.305 1382.31,219.631 1385.75,220.973 " fill="none" id="SUCURSALES-VENTAS_ACCESORIO" style="stroke:#A80036;stroke-width:1.0;"/><line style="stroke:#A80036;stroke-width:1.0;" x1="1385.8796" x2="1393.33" y1="221.0201" y2="216.4836"/><line style="stroke:#A80036;stroke-width:1.0;" x1="1385.8796" x2="1393.33" y1="221.0201" y2="231.3844"/><line style="stroke:#A80036;stroke-width:1.0;" x1="1385.8796" x2="1393.33" y1="221.0201" y2="223.934"/><line style="stroke:#A80036;stroke-width:1.0;" x1="1107.6748" x2="1110.346" y1="122.989" y2="115.4482"/><line style="stroke:#A80036;stroke-width:1.0;" x1="1110.5026" x2="1113.1739" y1="123.9908" y2="116.4499"/><line style="stroke:#A80036;stroke-width:1.0;" x1="1112.7809" x2="1105.24" y1="120.5542" y2="117.883"/><!--MD5=[e77da9334f9b0924e507b07a632f73d0]
link CLIENTES to VENTAS_ACCESORIO--><path codeLine="156" d="M1454.23,163.617 C1466.53,178.938 1479.4,194.973 1491.7,210.297 " fill="none" id="CLIENTES-VENTAS_ACCESORIO" style="stroke:#A80036;stroke-width:1.0;"/><line style="stroke:#A80036;stroke-width:1.0;" x1="1491.9268" x2="1503.1744" y1="210.5826" y2="216.817"/><line style="stroke:#A80036;stroke-width:1.0;" x1="1491.9268" x2="1490.7056" y1="210.5826" y2="216.817"/><line style="stroke:#A80036;stroke-width:1.0;" x1="1491.9268" x2="1496.94" y1="210.5826" y2="216.817"/><line style="stroke:#A80036;stroke-width:1.0;" x1="1448.4631" x2="1454.7031" y1="162.8351" y2="157.8289"/><line style="stroke:#A80036;stroke-width:1.0;" x1="1450.3405" x2="1456.5805" y1="165.1751" y2="160.1689"/><line style="stroke:#A80036;stroke-width:1.0;" x1="1454.0863" x2="1449.08" y1="163.452" y2="157.212"/><!--MD5=[326ae83d1d7150b9fcee0348e6a00cc3]
link CLIENTES to VENTAS_PC--><path codeLine="157" d="M1325.16,163.617 C1312.93,178.938 1300.14,194.973 1287.91,210.297 " fill="none" id="CLIENTES-VENTAS_PC" style="stroke:#A80036;stroke-width:1.0;"/><line style="stroke:#A80036;stroke-width:1.0;" x1="1287.6958" x2="1288.9483" y1="210.5687" y2="216.817"/><line style="stroke:#A80036;stroke-width:1.0;" x1="1287.6958" x2="1276.4517" y1="210.5687" y2="216.817"/><line style="stroke:#A80036;stroke-width:1.0;" x1="1287.6958" x2="1282.7" y1="210.5687" y2="216.817"/><line style="stroke:#A80036;stroke-width:1.0;" x1="1324.6487" x2="1330.9033" y1="157.8453" y2="162.8333"/><line style="stroke:#A80036;stroke-width:1.0;" x1="1322.7782" x2="1329.0328" y1="160.1908" y2="165.1788"/><line style="stroke:#A80036;stroke-width:1.0;" x1="1325.282" x2="1330.27" y1="163.4666" y2="157.212"/><!--MD5=[591cee78650b92d4236fa078b7d127c2]
@startuml
entity PCS_DISCOS_RIGIDOS{
**<PK><FK> PC_CODIGO nvarchar(50)**
**<PK><FK> DISCO_RIGIDO_CODIGO nvarchar(255)**
- -
}

entity PCS_MEMORIAS_RAM{
**<PK><FK> PC_CODIGO nvarchar(50)**
**<PK><FK> MEMORIA_RAM_CODIGO nvarchar(255)**
- -
}

entity PCS_PLACAS_VIDEO{
**<PK><FK> PC_CODIGO nvarchar(50)**
**<PK><FK> PLACA_VIDEO_CODIGO decimal(18,0)**
- -
}
entity COMPRAS_ACCESORIO{
**<PK> CODIGO_COMPRA_ACCESORIO decimal(18,0)**
- -
<FK> CODIGO_ACCESORIO decimal(18,0)
NUMERO decimal (18,0)
FECHA datetime2(3)
CANTIDAD decimal(18,0)
PRECIO decimal(18,2)
<FK> CODIGO_SUCURSAL int
}
entity DISCOS_RIGIDOS{
**<PK> DISCO_RIGIDO_CODIGO nvarchar(255)**
- -
TIPO nvarchar(255)
CAPACIDAD nvarchar(255)
VELOCIDAD nvarchar(255)
FABRICANTE nvarchar(255)
}

entity PLACAS_VIDEO{
**<PK> PLACA_VIDEO_CODIGO  decimal(18,0)**
- -
MODELO_PLACA_VIDEO  nvarchar(50)
CHIPSET nvarchar(50)
CAPACIDAD nvarchar(255)
VELOCIDAD nvarchar(50)
FABRICANTE nvarchar(255)
}
entity SUCURSALES{
**<PK> CODIGO_SUCURSAL int**
- -
DIRECCION nvarchar(255)
MAIL nvarchar(255)
TELEFONO decimal(18,0)
CIUDAD nvarchar(255)
}

entity CLIENTES{
**<PK> CODIGO_CLIENTE decimal(18,0)**
- -
DNI_CLIENTE decimal(18,0)
APELLIDO nvarchar(255)
NOMBRE nvarchar(255)
DIRECCION nvarchar(255)
FECHA_NACIMIENTO datetime2(3)
MAIL nvarchar(255)
TELEFONO int
}

entity ACCESORIOS{
**<PK>  CODIGO_ACCESORIO decimal(18,0)**
- -
DESCRIPCION nvarchar(255)
}

entity PCS{
**<PK>  PC_CODIGO nvarchar(50)**
- -
ALTO decimal (18,2)
ANCHO decimal (18,2)
PROFUNDIDAD decimal (18,2)
<FK> MICROPROCESADOR_CODIGO nvarchar(50)
}

entity MEMORIAS_RAM{
**<PK>  MEMORIA_RAM_CODIGO nvarchar(255)**
- -
TIPO nvarchar(255)
VELOCIDAD nvarchar(255)
CAPACIDAD nvarchar(255)
FABRICANTE nvarchar(255)
}

entity MICROPROCESADORES{
**<PK> MICROPROCESADOR_CODIGO nvarchar(50)**
- -
CANTIDAD_HILOS decimal(18,0)
CACHE nvarchar(50)
VELOCIDAD nvarchar(50)
FABRICANTE nvarchar(255)
}

entity COMPRAS_PC{
**<PK> CODIGO_COMPRA_PC decimal(18,0)**
- -
<FK> PC_CODIGO nvarchar(50)
NUMERO decimal (18,0)
FECHA datetime2(3)
CANTIDAD decimal(18,0)
PRECIO decimal(18,2)
<FK> CODIGO_SUCURSAL int
}

entity VENTAS_PC{
**<PK> CODIGO_VENTA_PC decimal(18,0)**
- -
FACTURA_NUMERO decimal(18,0)
<FK> PC_CODIGO nvarchar(50)
<FK> CODIGO_CLIENTE decimal(18,0)
CANTIDAD decimal(18,0)
PRECIO decimal(18,2)
FECHA datetime2(3)
<FK> CODIGO_SUCURSAL int
}

entity VENTAS_ACCESORIO{
**<PK> CODIGO_VENTA_ACCESORIO decimal(18,0)**
- -
FACTURA_NUMERO decimal(18,0)
<FK> CODIGO_ACCESORIO decimal(18,0)
<FK> CODIGO_CLIENTE decimal(18,0)
CANTIDAD decimal(18,0)
PRECIO decimal(18,2)
FECHA datetime2(3)
<FK> CODIGO_SUCURSAL int
}

PCS ||- -{PCS_DISCOS_RIGIDOS
PCS_DISCOS_RIGIDOS}- -||DISCOS_RIGIDOS
PCS ||- -{PCS_MEMORIAS_RAM
PCS_MEMORIAS_RAM}- -||MEMORIAS_RAM
PCS }- -||MICROPROCESADORES
PCS ||- -{PCS_PLACAS_VIDEO
PCS_PLACAS_VIDEO}- -||PLACAS_VIDEO



COMPRAS_PC}- -||PCS
VENTAS_PC}- -||PCS

COMPRAS_ACCESORIO}- -||ACCESORIOS
VENTAS_ACCESORIO}- -||ACCESORIOS

SUCURSALES ||- -{COMPRAS_ACCESORIO
SUCURSALES ||- -{COMPRAS_PC
SUCURSALES ||- -{VENTAS_PC
SUCURSALES ||- -{VENTAS_ACCESORIO

CLIENTES ||- -{VENTAS_ACCESORIO
CLIENTES ||- -{VENTAS_PC
@enduml

PlantUML version 1.2021.9beta2(Unknown compile time)
(GPL source distribution)
Java Runtime: Java(TM) SE Runtime Environment
JVM: Java HotSpot(TM) 64-Bit Server VM
Default Encoding: UTF-8
Language: en
Country: US
--></g></svg>